<svg width="36" height="36" viewBox="0 0 36 36" fill="none" xmlns="http://www.w3.org/2000/svg">
<path d="M35.6766 20.5104C35.6641 22.903 34.7619 24.3954 33.73 26.2757C31.5398 30.5366 26.2418 34.6852 21.3457 35.4335C20.2465 35.6413 19.1226 35.743 18 35.738C15.4186 35.7314 12.8285 35.1392 10.527 34.0456C10.3576 33.9654 10.274 33.8816 10.198 33.8437C9.47934 33.4967 8.3103 32.8335 7.67525 32.3561C6.29107 31.4153 4.25649 29.3085 3.46323 27.9979C3.10679 27.4576 2.7751 26.8806 2.73261 26.6175C2.62117 26.4107 2.48851 26.3361 2.45534 26.2839C2.45508 26.2832 2.45482 26.2826 2.45456 26.2819C2.34686 26.1141 2.1744 25.6387 2.12559 25.5403C2.11821 25.5255 2.107 25.6437 2.00965 25.3927C2.00124 25.3703 2.04632 25.3737 1.95418 25.1677C1.92698 25.1158 1.57622 24.4435 1.50003 24.2393C1.21335 23.5753 0.790563 21.9017 0.663644 21.0519C0.641121 20.9223 0.605275 20.8512 0.583377 20.7134C0.572031 20.6422 0.58212 20.5327 0.578918 20.5109C0.563047 20.4166 0.395043 20.0105 0.642962 20.1333C0.577776 19.6992 0.51845 19.8344 0.467342 19.83C0.412117 19.3546 0.51041 19.117 0.387521 18.9985C0.370927 18.666 0.363639 18.3348 0.365587 18C0.376453 15.9758 0.73597 13.954 1.43186 12.0536C1.4144 12.0466 1.39695 12.0396 1.37949 12.0326C1.68856 11.4053 1.66964 11.1401 1.92946 10.8194C2.00743 10.5864 2.09002 10.3554 2.17826 10.1247C5.01514 4.48917 10.9514 0.548197 17.2247 0.333199C17.4867 0.323277 17.5528 0.358701 17.9868 0.356765C17.9912 0.356764 17.9956 0.356761 18 0.356756C18.4782 0.354959 19.1458 0.334731 19.7678 0.398459C20.3216 0.450774 21.1237 0.610872 21.7241 0.749378C21.8602 0.779929 21.964 0.778028 21.9793 0.781663C22.069 0.803461 22.0643 0.843572 22.1507 0.865496C22.2543 0.891771 22.3857 0.894113 22.5056 0.927605C22.9521 1.05035 23.4329 1.19475 23.4888 1.21436C23.7557 1.30623 23.8005 1.3654 23.8223 1.37309C24.1149 1.48198 24.0163 1.41007 24.089 1.43849C24.4666 1.59073 24.6956 1.77442 25.2356 1.92257C25.2084 1.94627 25.1812 1.97002 25.1541 1.99383C25.5298 2.18485 25.313 1.99066 25.3981 2.01213C25.4347 2.01634 26.2465 2.43195 26.3044 2.47157C26.5169 2.5925 26.501 2.63509 26.5192 2.64556C26.5642 2.66986 27.1218 2.93309 27.3669 3.13663C27.6561 3.37451 27.2399 3.21404 27.3088 3.27785C27.3209 3.28764 27.65 3.4906 27.6768 3.54341C27.7079 3.59954 27.4306 3.4152 27.4277 3.42912C27.4276 3.43684 27.8508 3.79554 27.7392 3.77096C27.6483 3.75416 27.0533 3.30425 26.905 3.24265C26.8811 3.23197 26.8965 3.3012 26.8758 3.29091C26.8041 3.23083 25.2921 2.42921 25.2157 2.40764C25.3063 2.4239 25.3969 2.44089 25.4875 2.45871C25.3815 2.40494 25.275 2.35227 25.1678 2.30064C25.3295 2.354 25.49 2.40958 25.651 2.46811C25.5101 2.17849 24.7278 2.04478 24.6633 2.12578C24.6349 2.16117 25.0104 2.44671 24.593 2.34039C24.648 2.37592 24.7029 2.41184 24.7574 2.44799C24.8867 2.48381 25.0156 2.52119 25.1441 2.56013C25.0687 2.51218 24.9928 2.46476 24.9164 2.41788C24.9517 2.41898 24.987 2.42018 25.0224 2.4215C25.2589 2.5048 25.4938 2.59336 25.7276 2.68758C25.8381 2.75478 25.7962 2.77774 25.8711 2.82508C26.7928 3.43292 26.2237 2.9796 26.838 3.3582C26.9152 3.4296 26.9917 3.50172 27.0673 3.57433C27.0831 3.48131 27.325 3.69536 27.6645 3.88283C27.6104 3.88004 27.5563 3.87751 27.5024 3.87532C27.9823 4.16709 28.7754 4.98174 28.6339 4.67108C28.7255 4.76133 28.8158 4.85241 28.9052 4.94455C29.0043 4.99409 29.1031 5.0447 29.2015 5.09639C29.3125 5.19671 29.4221 5.29841 29.5304 5.40155C29.5216 5.41221 29.5128 5.42287 29.5039 5.43353C29.4161 5.35325 29.3276 5.27393 29.2382 5.19551C29.2774 5.28608 29.3157 5.37674 29.353 5.46747C29.4223 5.52079 29.4912 5.5747 29.5597 5.62916C29.318 5.351 29.7172 5.63061 29.8403 5.6738C30.0793 5.8752 30.1664 6.06911 30.2364 6.14574C30.2705 6.17964 30.7574 6.51621 30.5005 6.44531C30.7142 6.65131 30.9227 6.86306 31.126 7.08062C31.1921 7.17684 31.2571 7.27348 31.3211 7.3708C31.1143 7.21589 31.5034 7.83165 31.1507 7.43143C30.8851 7.13599 30.8658 7.02386 30.7418 6.88107C30.6293 6.75308 30.5388 6.71343 30.4125 6.57849C29.5581 5.67515 28.7986 4.99971 27.8531 4.29043C27.6657 4.15095 27.4786 4.04745 27.35 3.95831C27.2043 3.85786 27.418 3.93702 27.2222 3.82349C27.0158 3.70536 26.9495 3.71486 26.8961 3.6823C26.863 3.66218 26.7776 3.56488 26.6802 3.50654C26.2813 3.26259 25.6574 2.97855 25.5978 2.95052C25.5371 2.90483 24.3481 2.33017 24.2864 2.3125C24.2566 2.29735 24.3728 2.19149 24.0467 2.22474C23.9608 2.19477 23.8745 2.16543 23.7882 2.13687C23.8115 2.11568 23.835 2.09456 23.8585 2.07348C23.315 1.99151 23.5113 1.99587 23.0127 1.84495C21.8255 1.47948 20.0097 1.13172 18.6505 1.10805C18.387 1.10072 18.2646 1.12399 18 1.13148C17.9607 1.1327 17.9182 1.13366 17.8718 1.13431C17.5389 1.1321 16.6648 1.08477 16.8625 1.21224C16.115 1.14782 16.0182 1.3768 15.6361 1.29681C15.5944 1.32157 15.5528 1.34648 15.5115 1.37154C15.1018 1.35329 14.9892 1.44408 14.5633 1.54026C14.3793 1.58389 14.5733 1.45302 14.2217 1.62925C14.1492 1.63866 14.0767 1.64854 14.0044 1.65888C14.0159 1.63479 14.0275 1.61072 14.0392 1.58665C13.6318 1.70392 13.6025 1.70522 13.6693 1.76646C13.4679 1.80548 13.2675 1.84815 13.068 1.89443C13.0512 1.92614 13.0345 1.95786 13.0179 1.9896C13.0898 1.92078 16.7509 1.10098 18 1.19719C18.1393 1.194 18.2459 1.19278 18.3115 1.1916C19.0657 1.24464 20.5838 1.3432 21.1835 1.48918C21.4219 1.54145 21.5179 1.61853 21.8617 1.70558C22.2041 1.79211 22.6505 1.86312 22.8319 1.91666C23.463 2.03384 26.1909 3.25992 24.3007 2.51575C24.344 2.56362 24.3869 2.61166 24.4294 2.65985C25.2033 2.89237 24.915 2.82754 25.5085 3.12886C25.7577 3.25501 26.3708 3.52756 26.2737 3.62088C25.8136 3.38204 25.3421 3.09606 24.9312 2.90981C24.891 2.88972 24.38 2.72611 24.1313 2.6128C23.9068 2.51013 24.1085 2.45286 23.5556 2.39611C23.2227 2.137 22.9596 2.18381 22.8566 2.16523C22.6761 2.13369 22.6757 2.06518 22.5016 2.00784C22.3118 1.94579 22.1674 1.95406 22.1411 1.94749C21.8818 1.86402 20.4851 1.6034 20.422 1.58186C20.4801 1.57859 20.538 1.5756 20.5968 1.57304C20.2341 1.49896 20.3011 1.57873 20.2042 1.57314C20.1327 1.56339 20.0612 1.55411 19.9894 1.54528C20.0195 1.53486 20.0497 1.52453 20.0799 1.51428C19.6459 1.46734 19.9706 1.54723 19.3577 1.49022C18.967 1.45662 18.564 1.39046 18.5256 1.39346C18.5144 1.39425 18.6365 1.43384 18.4768 1.43377C18.3419 1.43385 18.1567 1.43265 18 1.42708C17.8493 1.42154 17.7261 1.4114 17.7004 1.38794C17.5704 1.39733 17.5829 1.4451 17.5657 1.44654C17.49 1.44129 16.2026 1.54269 15.9725 1.58775C15.339 1.67226 14.6301 1.79015 13.9588 1.96793C13.8899 1.98617 13.9265 1.94529 13.8574 1.96401C13.7443 1.99175 13.1897 2.19981 13.1084 2.23146C12.8994 2.30176 12.3478 2.4735 12.2679 2.52047C12.2566 2.52674 12.4491 2.49972 12.2452 2.58882C12.0198 2.68912 12.124 2.59047 12.1113 2.59456C11.6355 2.75738 11.3601 2.92201 11.0532 3.07225C10.954 3.1209 10.751 3.17184 10.6162 3.25357C10.6007 3.26291 10.65 3.28147 10.635 3.2911C10.4331 3.41488 10.2052 3.4558 10.1127 3.50104C9.887 3.61214 10.0327 3.59265 10.0213 3.59922C9.87631 3.68164 9.6717 3.77646 9.45631 3.91035C8.49859 4.51241 7.75566 5.06681 6.86414 5.87278C6.75264 5.97432 6.59717 6.07104 6.58044 6.08716C6.52919 6.13707 6.57374 6.15386 6.42609 6.29779C6.11554 6.60218 5.8413 6.89839 5.55847 7.22291C5.50163 7.28829 5.4467 7.29002 5.40313 7.34002C5.2525 7.506 4.87232 8.16648 4.76163 8.09919C4.59255 8.52226 4.34535 8.70418 4.15127 9.00276C3.68451 9.70481 3.0892 10.8826 2.76236 11.6551C2.69173 11.8166 2.62984 11.8812 2.59208 11.9723C2.51614 12.1333 2.20767 13.094 2.19404 13.1452C2.15554 13.2411 2.02359 13.1382 2.00677 13.6892C1.93542 13.9949 1.88727 13.9435 1.86792 14.0058C1.72112 14.4922 1.76884 15.0028 1.66209 14.8886C1.58661 15.4758 1.61132 15.8593 1.46647 16.0852C1.52387 16.0891 1.52512 16.3671 1.47784 16.6962C1.41307 16.3497 1.33443 16.3814 1.46404 15.5603C1.4662 15.5475 1.50359 15.5781 1.50576 15.5652C1.52519 15.4497 1.54335 15.2 1.58198 15.0019C1.62085 14.8037 1.62835 14.9193 1.6428 14.8399C1.65627 14.7674 1.61676 14.7621 1.63736 14.6572C1.70519 14.3149 1.76747 14.0132 1.81613 13.8218C1.8469 13.7003 1.91716 13.5745 1.94336 13.4815C2.03985 13.1212 2.26077 12.359 2.44269 11.9172C2.48 11.8253 2.50026 11.8779 2.58482 11.6788C2.59493 11.6555 2.59142 11.555 2.65922 11.3765C2.72713 11.1982 2.80681 11.0724 2.85441 10.9601C2.89458 10.8663 2.84285 10.8893 2.93188 10.6993C2.98052 10.5258 3.99149 8.82338 4.0797 8.75316C4.17226 8.6294 4.25594 8.59769 4.30423 8.51698C4.31257 8.50265 4.2882 8.45156 4.31839 8.40246C4.79207 7.57199 6.2463 6.03767 7.08651 5.35591C8.80149 3.88407 10.6403 2.80404 12.8115 2.07629C12.8477 2.05552 12.884 2.03485 12.9205 2.01431C12.6991 2.08428 12.4796 2.15871 12.2622 2.23751C12.2529 2.2163 12.2436 2.19509 12.2343 2.17388C11.9373 2.27949 11.9968 2.31759 12.0166 2.34481C11.9033 2.37316 11.7903 2.4027 11.6775 2.43343C11.6144 2.54214 10.8843 2.79875 10.529 2.98192C10.2962 3.0973 10.0398 3.26969 9.91915 3.33405C9.66471 3.46995 9.64739 3.42488 9.62709 3.43515C9.59247 3.45302 9.26695 3.69415 9.02162 3.84971C8.66042 4.08057 8.57519 4.04121 8.13434 4.43731C7.50059 4.84892 6.8682 5.40318 6.29122 5.97555C6.35209 5.81585 5.8779 6.37522 5.6582 6.61891C4.27636 8.07394 2.92963 10.1871 2.20858 12.1001C2.11349 12.3447 2.01036 12.5182 1.96517 12.658C1.94079 12.7338 1.97646 12.7818 1.93676 12.8848C1.92996 12.9028 1.88104 12.9021 1.8147 13.0961C1.63612 13.579 1.4326 14.8372 1.3039 15.1414C1.15068 16.0864 1.07833 17.0436 1.08582 18C1.09205 18.7945 1.15265 19.582 1.2689 20.367C1.25644 20.4129 1.24417 20.459 1.23209 20.5051C1.36397 20.8232 1.56467 22.1169 1.76298 22.7304C2.07617 23.815 2.6647 25.1315 3.14326 25.9921C3.24551 26.18 3.30817 26.3465 3.41099 26.5214C3.45532 26.5967 3.54103 26.6717 3.58825 26.7489C4.11144 27.6212 4.91734 28.7475 5.6248 29.4945C7.21773 31.1964 9.03804 32.5097 11.2007 33.4673C13.3394 34.4093 15.6759 34.887 18 34.878C23.6278 34.9088 29.0967 31.8824 32.125 27.2007C32.1828 27.1124 32.2139 27.1386 32.2583 27.0696C32.5281 26.6657 33.0259 25.7051 33.2533 25.2081C33.4439 24.8181 33.7626 24.1993 33.7557 24.0357C33.117 25.4447 32.3333 26.8792 31.3415 28.1362C31.2711 28.2255 31.2318 28.2129 31.2227 28.2235C31.053 28.4185 31.1971 28.3242 30.9627 28.6172C30.8904 28.7234 30.0285 29.4998 30.2066 29.4782C30.0005 29.6686 28.5499 30.9688 28.2432 31.1886C28.1559 31.2625 28.242 31.2416 28.2252 31.257C28.1518 31.3236 28.086 31.3109 28.015 31.3627C27.8279 31.5032 27.3609 31.8783 27.2646 31.939C27.0489 32.0876 26.3608 32.4628 26.0614 32.6332C25.7882 32.7922 25.865 32.8099 25.6236 32.9402C25.4322 33.0403 25.6238 32.899 25.1852 33.0971C24.9705 33.1988 24.2155 33.5563 24.0236 33.6243C23.8337 33.6974 23.6119 33.7462 23.3482 33.8378C22.969 33.9756 22.1305 34.2303 21.7316 34.3253C21.7079 34.3313 21.6585 34.3841 21.599 34.3962C21.4759 34.4211 21.5023 34.3641 21.4087 34.3785C21.3203 34.4113 19.7039 34.666 19.4259 34.6668C19.2358 34.6825 19.1056 34.7207 18.9995 34.7267C18.9164 34.7312 18.9046 34.6901 18.8207 34.6938C18.7948 34.6951 18.5747 34.7419 18.3514 34.7454C18.2824 34.7465 18.1503 34.7449 18 34.7397C17.6904 34.7303 17.3103 34.7002 17.2486 34.6967C17.1886 34.6937 17.2537 34.727 17.0753 34.717C16.9123 34.7073 16.8085 34.6612 16.7165 34.6537C16.5028 34.6363 16.2624 34.6464 16.0345 34.6198C15.3836 34.5391 15.427 34.4873 15.3877 34.4819C15.2807 34.4606 15.2305 34.4963 15.195 34.4912C15.0447 34.4707 14.6807 34.4097 14.5481 34.3825C14.3829 34.3497 14.3224 34.2938 14.1493 34.2531C14.0205 34.2228 13.7505 34.1987 13.4572 34.118C12.798 33.9398 12.0251 33.6741 11.4095 33.4063C11.2252 33.3265 11.213 33.2786 11.1576 33.2528C10.8671 33.1162 10.6881 33.0743 10.6054 33.0333C10.0134 32.7482 9.0413 32.0961 8.55263 31.7412C8.34705 31.6058 7.46137 30.9858 7.0118 30.572C6.95977 30.5256 7.02836 30.5464 6.96716 30.4987C6.82125 30.3841 6.7938 30.44 6.72509 30.3752C6.69212 30.3437 6.6386 30.2486 6.5447 30.1554C6.05833 29.6714 5.72192 29.34 5.51431 29.1052C3.51425 26.8516 2.16387 23.9885 1.64251 21.2328C1.58318 20.9276 1.4803 20.5481 1.45674 20.0762C1.4736 20.0594 1.49049 20.0427 1.5074 20.0261C1.48708 20.012 1.46677 19.9978 1.44647 19.9835C1.37672 19.4524 1.33664 19.2534 1.33407 18.7062C1.33395 18.659 1.41458 18.5139 1.30596 18.428C1.35117 18.0553 1.33429 18.0791 1.3134 18C1.30428 17.9639 1.29489 17.9062 1.29419 17.7798C1.29227 17.377 1.33508 16.9885 1.37262 16.6007C1.42516 16.3915 1.44979 17.2897 1.45345 17.3447C1.44948 17.4376 1.39357 17.5329 1.38875 17.6231C1.38141 17.7589 1.38902 17.8931 1.39248 18C1.3958 18.1032 1.39507 18.1806 1.37219 18.2104C1.4279 18.5553 1.39564 18.1254 1.44179 18.1682C1.42545 18.3987 1.41382 18.6288 1.40687 18.8587C1.55306 18.9686 1.47879 20.248 1.59322 20.1471C1.58302 20.2501 1.57377 20.3532 1.56547 20.4565C1.77782 20.874 1.71787 21.1413 1.80582 21.7324C1.8145 21.6865 1.82336 21.6408 1.83241 21.595C1.84086 21.606 1.99112 22.1049 1.87017 21.9429C2.10236 22.4342 1.92992 22.461 2.1883 22.8835C2.28984 23.1497 2.1638 23.0106 2.33037 23.4934C2.43046 23.7781 2.60101 24.1168 2.73436 24.4252C2.76501 24.4965 2.73937 24.5445 2.76698 24.6082C2.79471 24.6718 2.84641 24.686 2.88153 24.762C2.95399 24.9191 3.02315 25.134 3.07328 25.2303C3.11802 25.3166 3.21159 25.4251 3.32417 25.6291C3.72582 26.337 3.56987 26.1431 3.61592 26.2651C3.66922 26.3947 3.77793 26.4458 3.91539 26.6846C3.92926 26.7086 3.85484 26.6703 3.90378 26.746C3.94358 26.8069 4.00164 26.8138 4.13932 27.0102C4.18102 27.0973 5.05757 28.2934 5.21517 28.456C5.4315 28.7254 5.91626 29.3269 6.17117 29.5803C6.26796 29.6792 6.399 29.7567 6.50396 29.8588C6.84989 30.1995 7.43132 30.7171 7.92014 31.0922C8.3524 31.4377 9.12185 32.0478 9.4252 32.137C10.0978 32.5287 10.2433 32.661 10.2935 32.6918C10.4337 32.7678 10.5185 32.764 10.6991 32.8512C12.7477 33.8771 15.6481 34.5795 18 34.5451C18.3184 34.5455 18.6229 34.5366 18.9144 34.5203C24.6397 34.2516 30.0596 30.708 32.6797 25.6084C32.6701 25.5861 32.6605 25.5639 32.6507 25.5417C32.3328 26.1361 31.8963 26.7978 31.5115 27.337C31.0112 28.0642 30.2094 29.1199 29.6547 29.4844C29.8317 29.2912 30.157 29.0093 30.1024 28.97C29.7844 29.3137 29.4519 29.6434 29.1061 29.9583C29.137 29.9712 29.1681 29.984 29.1992 29.9967C28.8463 30.3385 28.4593 30.66 28.073 30.9659C28.0057 31.019 28.0707 31.0038 28.0116 31.0495C27.9453 31.1004 27.9732 31.0436 27.9606 31.0529C27.7926 31.1805 27.7578 31.2403 27.7369 31.2555C27.6829 31.2935 27.7086 31.2419 27.5498 31.3469C27.255 31.5407 27.083 31.7385 27.0855 31.593C26.9912 31.6561 26.8963 31.7183 26.8007 31.7795C26.7936 31.8229 26.7862 31.8663 26.7787 31.9098C26.117 32.1683 25.9424 32.5208 25.5135 32.5387C25.4133 32.6221 25.3118 32.7046 25.209 32.7861C25.1296 32.7885 25.0508 32.79 24.972 32.791C24.9714 32.8224 24.9707 32.8538 24.9699 32.8851C24.338 33.1597 23.6666 33.4581 23.0366 33.6562C22.5975 33.7923 22.4893 33.8106 22.0955 33.9163C21.2191 34.1326 22.0785 33.8755 21.3348 33.9787C21.3799 34.0045 21.4253 34.0301 21.4709 34.0555C21.3514 34.0941 21.2321 34.1312 21.1123 34.167C21.0219 34.1557 20.9318 34.1437 20.8418 34.1309C20.4865 34.3407 20.2209 34.2554 20.17 34.2624C20.1289 34.2671 19.9938 34.3782 19.5337 34.3477C19.7324 34.4503 19.1884 34.379 19.1458 34.3791C19.1048 34.3831 18.5862 34.4383 18.3742 34.4394C18.2872 34.4409 18.1484 34.4359 18 34.4292C17.8641 34.4232 17.7211 34.4157 17.6027 34.4135C17.3842 34.4088 17.4051 34.4492 17.3891 34.4493C17.12 34.4417 17.2905 34.4175 17.0958 34.4062C16.9007 34.3941 16.7475 34.4168 16.7057 34.4105C16.6847 34.4072 16.7581 34.375 16.662 34.3637C16.4055 34.3344 15.9324 34.3161 15.6388 34.2713C15.5348 34.2561 15.4078 34.204 15.2921 34.1837C15.1147 34.1526 15.0244 34.1791 14.9217 34.1586C14.8858 34.1511 14.6711 34.0439 14.3874 33.9903C14.3343 33.9804 14.1423 34.0803 13.9835 33.8361C13.9608 33.8591 13.938 33.882 13.9151 33.9049C12.9564 33.7218 12.7801 33.4041 12.308 33.4498C11.6566 33.1782 12.1379 33.2776 12.0695 33.2391C12.0258 33.2145 11.8061 33.1494 11.7835 33.1383C11.7434 33.1192 11.76 33.099 11.7152 33.0804C10.8946 32.7307 11.2399 32.928 10.9694 32.8378C10.3293 32.6058 9.93655 32.2235 10.9615 32.7903C10.9676 32.7777 10.9736 32.7651 10.9796 32.7524C10.7115 32.6449 10.071 32.2945 10.3196 32.3466C10.505 32.407 12.0535 33.152 11.2006 32.6775C11.0095 32.5682 10.8806 32.567 10.587 32.3051C10.3675 32.1837 10.2736 32.2795 10.0001 32.0664C10.027 32.133 10.0544 32.1995 10.0823 32.266C9.64092 32.0889 9.18819 31.7137 8.87709 31.5316C8.7707 31.4722 8.28469 31.3871 8.49289 31.2745C8.3123 31.171 7.57125 30.54 7.42656 30.4318C7.39214 30.4057 7.26831 30.4616 6.82913 30.0044C6.80666 29.9641 6.78438 29.9238 6.76232 29.8834C7.20958 30.2471 6.50031 29.5204 6.77507 29.6326C6.80699 29.7328 7.11976 30.0629 7.15935 30.1286C7.22532 30.2428 6.90952 30.0356 7.27649 30.3397C7.618 30.4016 6.92464 29.8987 7.13822 29.8585C6.63244 29.4974 6.64703 29.392 6.55042 29.2926C6.14351 28.8583 5.88055 28.5899 5.53922 28.1434C5.4206 28.0621 6.04258 28.8728 6.14645 28.9501C5.7398 28.6886 6.27772 29.2908 6.57421 29.4746C6.56796 29.5212 6.56191 29.5679 6.55605 29.6147C6.2537 29.2882 5.96619 28.9656 5.65528 28.6528C5.64714 28.622 5.6391 28.5911 5.63117 28.5603C5.71119 28.6215 5.79163 28.6818 5.87247 28.7412C5.65976 28.4448 5.7166 28.682 5.47989 28.2483C5.43778 28.2634 5.39562 28.2785 5.3534 28.2934C5.06884 27.922 4.80061 27.539 4.54939 27.1454C4.33656 26.9963 3.89076 26.209 4.07276 26.2938C3.89606 25.9788 4.0716 26.3935 3.87766 26.1135C3.79323 25.9915 3.65066 25.7385 3.64367 25.6618C3.7489 25.6403 3.96813 26.0108 4.0964 26.0854C4.05043 26.0218 3.10358 24.2699 3.3082 24.3731C3.25931 24.2219 3.22887 24.3142 3.10517 24.056C2.74932 23.3294 2.51232 22.106 2.23105 21.5084C2.31744 22.2706 2.47425 22.4667 2.65358 23.0201C2.72965 23.3894 3.66777 25.4596 3.36701 25.0414C3.41613 25.111 3.46572 25.1802 3.51578 25.2488C3.52442 25.3392 3.53386 25.4297 3.54412 25.5203C3.42914 25.31 3.31827 25.0959 3.21282 24.8808C3.21827 24.8151 3.22413 24.7495 3.2304 24.6841C3.19828 24.6698 3.16616 24.6554 3.13406 24.6408C3.08859 24.5505 3.04392 24.4597 3.00005 24.3684C3.03701 24.3836 3.07398 24.3986 3.11096 24.4134C3.0538 24.2687 2.99932 24.1247 2.94657 23.979C2.92709 24.0316 2.90787 24.0843 2.88891 24.1373C2.61116 23.458 2.72533 23.6787 2.65543 23.2744C2.566 22.985 2.65731 23.4958 2.4412 22.8893C2.20877 22.1796 2.44274 22.6201 2.18593 21.6923C2.16455 21.683 2.14318 21.6737 2.12182 21.6643C2.0924 21.4528 2.06707 21.2401 2.04632 21.0292C2.02863 21.061 2.01105 21.0929 1.99355 21.1249C1.91591 20.6934 1.78984 20.0979 1.8652 19.9425C1.87656 20.3896 2.03805 20.3605 2.05011 20.2438C2.06288 20.1151 1.91933 19.0616 1.91756 18C1.90567 17.0809 1.99486 16.1665 2.03688 15.8552C2.14944 14.9963 2.33621 14.3707 2.47325 13.5885C2.23375 14.0819 1.94686 15.9535 1.89387 16.3094C1.88616 16.3442 1.74042 16.3206 1.88356 16.5627C1.82873 16.9961 1.81363 17.4822 1.82331 18C1.82993 18.3562 1.84781 18.7178 1.87085 19.0927C1.827 19.0675 1.78321 19.0421 1.73948 19.0164C1.78508 18.5286 1.65198 18.0775 1.71435 18C1.72488 17.9872 1.74101 17.9853 1.76468 17.9961C1.7647 17.8827 1.76589 17.7697 1.76823 17.6569C1.74008 17.6563 1.71193 17.6557 1.68378 17.6551C1.68733 17.4842 1.69349 17.3141 1.70227 17.1442C1.73039 17.1456 1.75851 17.1471 1.78662 17.1486C1.79392 17.0073 1.80303 16.8665 1.81392 16.7263C1.78706 16.7095 1.76023 16.6926 1.73342 16.6757C1.80707 16.2601 1.881 14.8092 1.94742 15.4631C1.97821 15.2667 2.01253 15.0714 2.0503 14.8774C2.02997 14.8741 2.00964 14.8708 1.9893 14.8675C2.00288 14.7832 2.01707 14.6993 2.03211 14.6146C2.04452 14.6461 2.05701 14.6775 2.06959 14.7088C2.11591 14.3163 2.30055 13.9836 2.30607 13.7187C2.24791 13.8788 2.19245 14.0391 2.13942 14.2006C2.23717 13.8918 2.3502 13.2988 2.36755 13.2483C2.41493 13.0922 2.48092 13.0215 2.53846 12.8543C2.59091 12.7033 2.55407 12.714 2.5647 12.6861C2.88674 11.8841 2.93874 12.2601 2.8959 11.8094C2.93806 11.7804 2.98029 11.7517 3.02259 11.7232C3.02295 11.662 3.02389 11.6002 3.0251 11.5385C3.12834 11.3051 3.2366 11.0752 3.35051 10.8473C3.28167 10.9084 3.21338 10.9699 3.1454 11.0323C3.29539 10.678 3.44294 10.5514 3.46065 10.5192C3.51236 10.428 3.49597 10.3651 3.5111 10.3363C4.27853 8.97514 3.84667 9.81759 4.39113 9.24542C4.48681 8.97919 4.28019 9.17685 4.20322 9.17519C4.4303 8.8816 4.47942 8.77589 4.70894 8.45981C4.76904 8.37784 4.86242 8.31112 4.90096 8.26024C4.93417 8.2161 5.00839 8.0547 5.09047 7.94953C5.22678 7.77397 5.43007 7.55856 5.62822 7.32847C5.78994 7.135 6.29278 6.54525 6.6865 6.17454C6.85354 6.01566 6.83682 6.07612 6.88017 6.03548C6.89813 6.01863 7.00425 5.8688 7.11484 5.77043C8.01505 4.96643 9.04252 4.26667 10.1019 3.68129C10.8474 3.26837 11.6273 2.88066 12.4348 2.5925C12.6063 2.53182 12.525 2.59057 12.6001 2.56509C12.626 2.55674 12.6404 2.49813 12.9146 2.42837C13.0137 2.40362 12.9127 2.472 13.0084 2.44292C13.055 2.42929 13.0617 2.38039 13.3311 2.28941C13.8233 2.12591 14.1096 2.12038 14.1531 2.10715C14.2368 2.08376 14.2039 2.05517 14.3161 2.02788C14.8666 1.89586 15.331 1.80897 15.8294 1.73935C16.062 1.6853 17.681 1.57214 17.7719 1.59631C17.9598 1.6076 17.808 1.67427 18 1.67959C18.0126 1.67998 18.0267 1.68013 18.0425 1.68002C18.1142 1.66156 18.186 1.64357 18.258 1.62605C18.1723 1.61405 18.0863 1.60271 18 1.59204C17.9718 1.58855 17.9436 1.58513 17.9154 1.58179C17.9433 1.58374 17.9715 1.58532 18 1.58658C18.2929 1.59921 18.6072 1.58124 18.8178 1.59304C18.8607 1.5945 19.2544 1.65135 19.454 1.66667C19.3678 1.67298 19.2816 1.67996 19.1954 1.6876C19.2247 1.70155 19.2539 1.71557 19.283 1.72967C19.6819 1.74253 20.107 1.79179 20.5109 1.8569C20.6577 1.88084 20.6036 1.90109 20.7515 1.92682C21.6046 2.09108 21.4249 1.93125 22.18 2.35086C21.9151 2.24953 20.9031 2.06501 20.7562 2.04056C20.6556 2.01653 20.2824 1.76948 20.4008 1.98344C19.5773 1.87238 20.3079 1.85332 19.5288 1.79307C19.5421 1.81809 19.5554 1.84313 19.5685 1.86818C19.2977 1.85731 19.0972 1.85604 18.9342 1.8048C18.8893 1.88151 18.4448 1.84897 18 1.84047C17.8015 1.83606 17.6055 1.83529 17.45 1.84295C16.721 1.87661 15.9044 1.98968 15.1956 2.12078C14.9514 2.16551 14.8055 2.15015 14.7748 2.15629C14.7304 2.16552 14.6123 2.23034 14.5236 2.25024C14.1914 2.31468 13.1749 2.52893 12.9669 2.72183C14.5877 2.18759 16.2919 1.91785 18 1.91848C18.3102 1.9185 18.6166 1.92718 18.9243 1.9446C18.6765 1.85288 20.7087 2.05224 20.8083 2.1056C20.9024 2.12468 20.8162 2.1478 20.8439 2.15503C21.0495 2.20805 21.236 2.19046 21.3027 2.20435C21.3532 2.21497 21.4498 2.26104 21.6278 2.30131C21.6604 2.30875 21.6756 2.28438 21.7107 2.29255C21.9424 2.34709 22.1706 2.40653 22.4011 2.47158C22.4151 2.4758 22.4622 2.53045 22.52 2.5474C22.5779 2.56429 22.6464 2.54346 22.6611 2.54776C22.8437 2.60225 23.1488 2.72884 23.3193 2.78959C23.3788 2.81044 23.3472 2.76848 23.4137 2.79236C23.6176 2.86672 23.5313 2.89494 23.7872 2.97663C23.8728 3.00458 23.8835 2.96146 24.0415 3.03107C24.1532 3.08079 24.1113 3.14777 24.128 3.15766C24.151 3.1695 24.5627 3.2791 24.6661 3.38394C24.3385 3.38169 24.96 3.52683 24.9571 3.46546C25.1014 3.55047 25.2444 3.63772 25.3855 3.72691C25.4425 3.74031 25.4994 3.75403 25.5563 3.76809C26.1175 4.14374 26.4871 4.32245 27.0244 4.70776C27.052 4.72472 27.4868 5.07245 27.4524 5.07481C27.1645 4.90639 26.8909 4.72316 26.7477 4.55366C26.3873 4.46806 26.4373 4.37867 25.9413 4.10842C25.7744 4.01961 25.7462 4.04288 25.7271 4.03256C25.0824 3.68162 24.0066 3.22418 23.5719 2.96958C23.4329 2.94508 23.896 3.13145 23.7078 3.08052C23.62 3.00519 21.1697 2.3474 21.9779 2.45735C21.8954 2.43949 21.8127 2.42228 21.7299 2.40571C21.6238 2.48713 21.2208 2.37509 21.2879 2.28283C21.2443 2.29569 21.2011 2.30879 21.1581 2.32208C21.0778 2.32457 20.9852 2.31636 20.8563 2.29889C20.5111 2.23652 18.9583 2.02442 18 2.04181C17.5931 2.04009 17.3 2.05529 17.2536 2.0616C17.2512 2.08664 17.2488 2.11168 17.2465 2.13672C17.4974 2.13046 17.748 2.1267 18 2.12702C19.0421 2.12938 20.0936 2.19551 21.2028 2.48062C21.1672 2.44947 21.1316 2.41848 21.0957 2.38759C21.6468 2.52958 22.1884 2.70095 22.7162 2.89993C22.1356 2.7571 21.207 2.57091 20.5962 2.44041C20.4873 2.41627 20.5731 2.39732 20.5484 2.3893C20.4837 2.36873 20.4037 2.41198 20.1667 2.38449C19.9298 2.35395 19.3335 2.25516 19.2783 2.25434C19.1722 2.24762 18.8794 2.29282 18.7004 2.28485C18.4639 2.2742 18.6239 2.2406 18.5764 2.23789C18.3794 2.22688 18.2014 2.24396 18.046 2.24056C18.0316 2.24024 18.0162 2.23969 18 2.23896C17.7565 2.22642 17.3243 2.18432 17.1799 2.29006C17.343 2.28641 17.5063 2.28526 17.6703 2.2866C16.7887 2.34515 16.0772 2.283 15.2305 2.53334C15.0583 2.69045 15.7609 2.55074 15.1741 2.70777C15.2815 2.68622 15.3895 2.66577 15.4978 2.64644C15.5191 2.61646 15.5405 2.58651 15.5621 2.55661C15.7527 2.54571 15.9421 2.53849 16.1327 2.53457C16.0763 2.51779 16.0196 2.50132 15.9628 2.48515C16.6296 2.37809 17.3135 2.32388 17.5499 2.44413C17.5629 2.4134 17.5759 2.38268 17.589 2.35198C17.7167 2.35619 17.8576 2.35484 18 2.35255C18.5556 2.34145 19.124 2.32921 18.9765 2.45393C19.0066 2.44683 19.0367 2.4398 19.0669 2.43287C19.4407 2.49483 19.2852 2.414 19.4274 2.41799C19.4676 2.41529 20.1948 2.53695 19.8653 2.54834C20.5665 2.67797 20.3713 2.49813 20.5688 2.52051C21.01 2.666 21.8386 2.74114 21.473 2.78357C21.5385 2.80321 21.6038 2.82326 21.6688 2.84372C21.9091 2.80171 22.0981 2.96513 22.3193 3.06722C22.3974 3.09205 22.4752 3.11747 22.5526 3.14349C22.6144 3.12819 22.6768 3.11338 22.7395 3.09896C23.4237 3.48906 23.3348 3.01536 23.5429 3.47254C23.484 3.47294 23.4251 3.47368 23.3663 3.47477C23.2411 3.43935 23.1162 3.40577 22.9905 3.37363C23.4805 3.55072 23.962 3.75308 24.4315 3.97923C24.9852 4.34892 25.3698 4.42586 25.9582 4.87037C26.0217 4.89781 26.0851 4.92569 26.1483 4.95402C26.0455 4.98595 25.8289 4.83511 26.2263 5.12825C26.2307 5.19856 25.9475 5.02755 25.84 4.91305C25.8141 4.8849 26.1033 5.00784 25.8043 4.82638C25.5991 4.70631 25.9404 4.97731 25.3334 4.60607C25.3498 4.63103 25.366 4.65601 25.3822 4.68102C25.3152 4.6433 25.2477 4.60605 25.1803 4.56946C25.1354 4.50866 25.0899 4.44805 25.0438 4.38763C24.8649 4.34876 24.7486 4.35971 24.3918 4.17736C24.499 4.20513 24.3931 4.08259 24.2097 4.00225C24.2002 4.02367 24.1907 4.04509 24.1812 4.06651C23.7333 3.88849 23.9129 3.8902 23.5209 3.7916C23.4903 3.75971 23.4595 3.72791 23.4285 3.6962C23.1975 3.68388 22.423 3.48524 22.5953 3.42182C22.3476 3.45904 21.91 3.2842 21.7593 3.15572C21.7405 3.17498 21.7217 3.19426 21.703 3.21358C21.6113 3.19555 21.5193 3.17834 21.4271 3.16198C21.3794 3.13657 21.3314 3.11137 21.2833 3.08641C21.2152 3.08591 21.1472 3.08587 21.0792 3.08628C21.0447 3.05536 21.0102 3.0246 20.9754 2.99392C20.8653 3.00075 20.7553 3.00875 20.6456 3.01794C20.5846 2.98833 20.5233 2.95908 20.4615 2.9302C20.4457 2.97409 19.8088 2.89368 19.6304 2.84663C19.5751 2.85498 19.5204 2.86369 19.4658 2.8727C19.442 2.84712 19.4181 2.8216 19.394 2.79614C19.3524 2.81101 19.311 2.82605 19.2697 2.84125C19.1795 2.81518 19.0887 2.7899 18.9973 2.76543C18.6129 2.85626 18.6089 2.7599 18.522 2.7568C18.4265 2.75409 18.192 2.77437 18 2.79459C17.8719 2.8078 17.7635 2.82011 17.7272 2.81929C17.6367 2.81726 17.592 2.77763 17.5188 2.776C16.31 2.77092 16.8136 2.86497 16.5751 2.89728C16.4476 2.91872 16.3513 2.89063 16.2372 2.90797C16.0401 2.92864 15.0708 3.13945 15.0169 3.15301C14.934 3.16259 15.0913 2.94694 14.834 3.04723C14.8442 3.14107 14.2592 3.17661 14.5529 3.24631C14.3194 3.28851 14.0864 3.33637 13.8541 3.38988C13.9107 3.4928 13.6107 3.49961 13.3086 3.60514C12.877 3.74399 11.97 4.19827 11.9588 4.0815C11.8701 4.14943 11.7825 4.21818 11.6959 4.28769C11.0099 4.56323 10.392 4.94912 9.77996 5.34916C7.95556 6.52878 6.25626 8.23632 5.10794 10.0782C5.05242 10.1665 5.02759 10.1339 4.98802 10.1978C4.77353 10.5306 4.31628 11.4519 4.09658 11.959C4.02348 12.1208 3.95668 12.1861 3.93358 12.2375C3.85596 12.4123 3.91898 12.3889 3.88533 12.47C3.82854 12.5965 3.53881 13.2715 3.46414 13.5151C3.42496 13.634 3.4206 13.7869 3.36979 13.9248C3.36546 13.9367 3.33287 13.9035 3.32933 13.9136C3.25385 14.171 3.33007 14.0245 3.30479 14.1115C3.1275 14.7307 2.99168 15.4111 2.89758 16.1044C2.87351 16.2769 2.81796 16.5399 2.80312 16.6884C2.79754 16.7451 2.83589 16.6457 2.818 16.8419C2.81214 16.9092 2.77082 16.9295 2.76327 17.0058C2.7324 17.3371 2.85681 17.4472 2.74797 17.7282C2.74755 17.8104 2.74822 17.902 2.75022 18C2.75781 18.5539 2.83061 19.2977 2.88157 19.7165C2.89496 19.8335 2.87862 19.8932 2.8935 20.0043C2.90407 20.0833 2.95928 20.2162 2.97866 20.3382C2.99801 20.4608 2.99524 20.6602 3.0415 20.894C3.08914 21.1395 3.17911 21.4413 3.19222 21.4956C3.20787 21.562 3.17279 21.6032 3.18967 21.6695C3.23821 21.8707 3.42854 22.3931 3.51655 22.6435C3.60878 22.9144 3.64719 23.0823 3.68054 23.174C3.71168 23.2587 3.78349 23.3451 3.79844 23.3834C3.8218 23.4432 3.78691 23.4729 3.81698 23.549C3.8665 23.6732 3.94267 23.7902 4.02181 23.9737C5.44702 27.2814 8.01153 29.9997 11.1337 31.6081C11.4834 31.786 11.6936 31.8562 12.2201 32.0907C12.4343 32.1837 12.3266 32.1883 12.4995 32.2469C12.5768 32.2726 12.57 32.2326 12.6667 32.2672C13.0921 32.4206 13.5882 32.6074 13.7774 32.6598C13.8525 32.6811 13.9488 32.6673 14.1033 32.7077C15.2525 33.0124 16.6527 33.2181 17.9365 33.2108C17.9573 33.2108 17.9785 33.2107 18 33.2106C18.6801 33.2112 19.6641 33.1211 20.4054 32.995C22.5276 32.6651 24.7082 31.784 26.333 30.693C28.8021 29.0634 30.7379 26.705 31.9432 24.0197C31.323 25.2525 30.3427 26.8528 29.3096 27.982C26.5765 31.0936 22.2926 33.1456 18 33.1082C17.7224 33.1084 17.4481 33.1011 17.1747 33.0863C15.6007 33.0161 13.6364 32.5895 12.068 31.8771C11.9967 31.8455 11.8358 31.8089 11.6838 31.7352C11.6507 31.7207 11.2742 31.4788 11.1428 31.4086C11.2231 31.5625 10.7435 31.2138 10.5868 31.1239C10.3871 31.0148 9.94835 30.8156 9.52139 30.4905C9.13597 30.1935 9.27061 30.2368 9.24943 30.22C9.11981 30.1076 9.03569 30.1216 8.92664 30.0474C8.43961 29.7927 6.46613 27.8407 6.05205 27.1821C5.93131 27.0236 5.96006 26.995 5.93331 26.9593C5.8629 26.8642 5.73208 26.7505 5.62348 26.5938C5.42681 26.3119 5.24688 25.9588 5.14972 25.7973C4.91245 25.4159 4.46705 24.6808 4.2316 24.1426C4.1643 23.9917 4.20616 23.9846 4.17644 23.9161C4.04131 23.6182 3.69695 22.8327 3.58223 22.4387C3.38635 21.8049 3.25476 21.1328 3.13236 20.471C3.1433 20.4258 3.15444 20.3806 3.16577 20.3356C3.13652 20.2717 3.10788 20.2087 3.07952 20.1447C2.98789 19.4371 2.92471 18.7212 2.91469 18C2.90868 17.5659 2.92174 17.1375 2.95868 16.7118C2.96611 16.5819 3.07497 15.9406 3.09389 15.8359C3.10664 15.7477 3.07527 15.6534 3.10351 15.5224C3.14392 15.3398 3.19734 15.5268 3.22735 15.2241C3.23602 15.1428 3.18482 15.2136 3.20507 15.0504C3.2029 14.9946 3.43354 13.9648 3.46043 13.9125C3.49012 13.8224 3.5892 13.7638 3.59767 13.7411C3.64202 13.6229 3.58302 13.6107 3.60273 13.528C3.6607 13.2825 3.80712 12.9865 3.82025 12.9484C3.96842 12.4797 4.28805 11.6119 4.55486 11.1655C4.59093 11.1035 4.62699 11.1318 4.634 11.1213C4.67929 11.0539 4.65739 10.9857 4.69257 10.9172C4.88048 10.5466 5.24378 10.0064 5.4841 9.66708C5.51138 9.62781 5.54765 9.53003 5.59838 9.46083C5.88771 9.07185 5.83108 9.22541 5.84778 9.20338C5.88937 9.15328 5.92146 9.03508 6.0246 8.89509C6.28548 8.53133 6.84842 7.88262 7.18839 7.54439C7.44122 7.28911 7.47458 7.33096 7.49151 7.31464C7.5286 7.28091 7.5999 7.15411 7.76988 6.9897C8.0989 6.67561 8.08881 6.74245 8.22804 6.61845C8.24011 6.6084 8.19365 6.59641 8.34991 6.4597C8.64868 6.19091 9.39271 5.68192 9.75258 5.45085C9.88983 5.36009 9.90236 5.30815 10.0453 5.21767C10.2707 5.07123 10.8164 4.80908 10.8592 4.78859C10.8709 4.78228 10.8769 4.73056 10.9463 4.69364C11.0227 4.65308 11.1082 4.63334 11.1654 4.60395C11.4897 4.43301 12.0378 4.10996 11.9389 4.32008C12.0305 4.23849 12.1241 4.15752 12.218 4.07794C12.9316 3.7897 13.6374 3.5422 14.3772 3.35165C14.5432 3.30906 14.6893 3.3053 14.8307 3.27355C14.9713 3.23815 15.5901 3.07783 15.6982 3.06397C15.8838 3.0233 16.9639 2.90767 17.1007 2.913C17.3656 2.90368 17.6208 2.95999 17.728 2.946C17.8139 2.93485 17.7335 2.90028 17.8983 2.88875C17.93 2.88663 17.9642 2.88535 18 2.88483C18.2881 2.8793 18.6758 2.93027 18.752 2.93416C18.7887 2.93633 18.7211 2.90253 19.0687 2.92314C19.2558 2.93524 19.3527 2.97492 19.42 2.98093C19.4412 2.98353 19.413 2.92794 19.7823 2.97612C20.0365 3.01102 20.1383 3.06544 20.1648 3.06908C20.2044 3.0751 20.3059 3.04854 20.4662 3.07616C20.8406 3.13727 21.5063 3.32764 21.8495 3.42555C21.9162 3.44436 21.9067 3.38925 22.1721 3.46892C22.3613 3.52709 22.3167 3.55523 22.3869 3.57789C22.4974 3.6141 22.6802 3.62053 22.9251 3.70636C23.2552 3.76663 25.4291 4.83907 25.5078 4.95353C25.5764 5.00293 25.66 5.053 25.6848 5.09248C25.6439 5.09163 25.6029 5.09096 25.5621 5.09047C25.2792 4.84434 25.3667 4.98996 25.2795 4.94631C25.1535 4.88142 24.6874 4.62588 24.5624 4.58751C24.5184 4.57353 24.5934 4.65703 24.363 4.57126C24.116 4.48083 24.0392 4.36405 23.9013 4.41841C23.6048 4.16224 23.2246 4.1491 23.6113 4.33943C23.8474 4.40628 25.9085 5.53055 26.272 5.84968C26.5912 6.06926 27.1911 6.48199 27.5471 6.80161C27.7608 6.98378 28.2602 7.46191 28.1981 7.48343C28.3706 7.66184 28.2218 7.43842 28.2644 7.46926C28.358 7.53051 28.8687 8.11774 28.9631 8.22966C29.4527 8.7614 30.0588 9.45961 30.3762 10.0936C30.3459 10.0741 30.3156 10.0548 30.2853 10.0356C30.1812 9.91629 29.792 9.29542 29.6816 9.27536C30.3196 10.1279 30.8638 11.05 31.3006 12.0201C31.3606 11.9708 31.8521 13.2035 31.8317 13.2758C31.7961 13.2634 31.7606 13.2512 31.7251 13.2391C31.5786 12.5003 31.4573 12.619 31.3344 12.1289C31.2526 11.9423 31.2328 12.0188 31.1828 11.9317C30.6676 11.0768 31.2739 11.8698 30.8884 11.2083C30.9327 11.444 30.6197 10.9043 30.4672 10.6711C30.4387 10.6149 30.0074 9.90085 29.945 9.82312C29.63 9.36276 29.0052 8.64086 28.6551 8.21284C28.3623 7.8899 28.1566 7.7559 27.8629 7.4939C27.638 7.29684 27.7243 7.32944 27.62 7.23456C27.399 7.03682 27.2554 7.05864 27.206 6.82136C27.0389 6.70799 26.8698 6.59829 26.6987 6.49231C26.7129 6.47363 26.727 6.45494 26.7412 6.43626C26.6403 6.35987 26.5387 6.28501 26.4359 6.21134C26.3921 6.20866 26.3483 6.20619 26.3046 6.20393C25.9951 5.94949 26.1627 5.9987 26.1382 5.90115C26.0686 5.8487 25.9984 5.79684 25.9277 5.74557C25.8433 5.75158 25.7593 5.75837 25.6756 5.76591C25.3515 5.55716 25.0188 5.36133 24.6792 5.17934C24.6679 5.1471 24.6565 5.11486 24.645 5.08262C24.6335 5.10301 24.6221 5.1234 24.6107 5.14379C24.0277 4.84876 23.4262 4.59414 22.8095 4.38145C22.6364 4.35339 23.6004 4.74792 23.6675 4.78994C24.0708 4.96092 25.1176 5.47353 25.0733 5.55453C25.3428 5.62914 26.0299 6.0839 26.1909 6.29558C25.8781 6.0707 25.5562 5.85849 25.2263 5.65968C25.2229 5.69005 25.2194 5.7204 25.2159 5.75072C24.8597 5.41409 24.7895 5.38255 24.304 5.25627C24.3202 5.22253 24.3364 5.18879 24.3526 5.15504C23.9909 5.11654 23.5209 4.6751 23.4416 4.81845C23.2781 4.73678 23.1125 4.65806 22.9449 4.58239C22.5635 4.47798 23.1142 4.75068 21.654 4.27336C21.5522 4.24315 21.5838 4.20864 21.4285 4.17274C21.3836 4.16363 21.1142 4.15279 20.6227 4.05357C20.5458 4.03832 20.5463 4.0023 20.4666 3.98368C20.2818 3.93912 19.9002 3.95588 20.0853 3.86693C19.3465 3.73443 19.6417 3.87193 19.4084 3.88283C19.2533 3.8929 19.2901 3.82833 19.1557 3.83255C18.9895 3.84122 19.1048 3.90729 18.4482 3.84919C18.5224 3.84685 18.5964 3.84508 18.6704 3.84387C18.6342 3.82362 18.5978 3.80349 18.5611 3.78351C18.1823 3.81546 18.218 3.75393 18.0386 3.85646C18.0257 3.85424 18.0128 3.85213 18 3.85013C17.7398 3.81016 17.5074 3.81119 17.1506 3.83962C16.423 3.91109 16.8106 3.98218 15.967 3.93632C15.8374 3.97632 15.7068 4.01842 15.5781 4.06216C15.353 4.05701 15.5186 3.96857 15.1915 4.02034C15.4665 4.07707 14.7742 4.17687 14.6852 4.30432C14.6678 4.28441 14.6503 4.26452 14.6328 4.24466C14.5614 4.26209 14.4906 4.27993 14.4191 4.29855C14.4236 4.3168 14.4282 4.33505 14.4327 4.3533C14.3344 4.36435 14.2363 4.37644 14.1383 4.38955C14.0725 4.42754 14.0073 4.46598 13.9425 4.50487C13.8162 4.50174 13.6885 4.50067 13.5607 4.50131C13.4873 4.52261 13.4141 4.54449 13.3411 4.56695C13.3731 4.58549 13.405 4.60413 13.4367 4.62288C13.3414 4.6455 13.2463 4.66912 13.1515 4.69372C13.2739 4.6989 13.2243 4.77104 12.9412 4.87767C12.709 4.96865 12.9331 4.77119 12.4514 5.0152C12.4188 5.03402 12.3806 5.1166 11.9288 5.34232C11.3897 5.62228 11.6326 5.44917 11.5348 5.49594C11.5155 5.5055 11.3671 5.62145 11.2176 5.71014C11.1326 5.76026 11.0365 5.7833 11.0251 5.78988C10.9729 5.82133 10.9772 5.86416 10.9054 5.90792C10.7231 6.01848 10.4688 6.15431 10.2951 6.27158C10.216 6.32467 10.155 6.39413 10.12 6.41831C10.0658 6.45559 9.97676 6.47402 9.92223 6.51266C9.71933 6.65498 9.49526 6.97356 9.3047 6.91608C9.21083 7.17805 8.71764 7.35992 8.81123 7.41415C8.28363 7.78157 7.24473 9.11523 7.16025 8.98006C7.0438 9.34962 6.98522 9.25903 6.89332 9.37902C6.79235 9.51367 6.86781 9.46167 6.78613 9.56727C6.59657 9.81413 6.41498 10.0513 6.2444 10.3103C6.25163 10.2568 6.25921 10.2033 6.26713 10.1497C6.08051 10.4186 6.18666 10.3534 6.01918 10.641C5.72028 11.1743 5.81798 10.9331 5.71847 10.9803C5.77791 10.987 5.4252 11.6168 5.38947 11.6817C5.36629 11.7193 5.38161 11.5109 5.20943 11.922C5.24096 11.9101 5.27247 11.8984 5.30402 11.8868C5.18493 12.0528 5.00172 12.5725 4.96204 12.6553C4.94277 12.6921 4.68072 12.8369 4.74733 13.087C4.71664 13.1026 4.68591 13.1185 4.65531 13.1342C4.60184 13.3628 4.55403 13.5927 4.51213 13.8232C4.46101 13.8461 4.40993 13.8694 4.35889 13.893C4.33753 13.9641 4.3167 14.0354 4.29643 14.1069C4.34582 14.0696 4.39535 14.0328 4.445 13.9965C4.29691 14.4295 4.23373 14.9841 4.09222 15.0513C4.09469 15.1528 4.09859 15.2525 4.10337 15.3529C4.05039 15.4074 3.99772 15.4627 3.94536 15.5187C3.87985 15.9721 3.90994 15.9825 3.91497 16.2966C3.88393 16.2806 3.85291 16.2646 3.82192 16.2485C3.83837 16.4846 3.84116 16.9023 3.83049 17.235C3.82411 17.3916 3.7713 17.66 3.77508 17.6978C3.77718 17.7217 3.84559 17.8782 3.85996 18C3.86828 18.0718 3.85744 18.1319 3.80076 18.1474C3.87623 18.69 3.8282 18.9294 3.84607 19.1501C3.85891 19.2929 3.90129 19.3535 3.92183 19.5138C3.95148 19.7435 3.96527 19.9755 3.9875 20.1064C4.00026 20.1811 4.03807 20.1901 4.04737 20.2417C4.09312 20.4856 4.03217 20.3486 4.08092 20.6055C4.08582 20.6296 4.1632 20.8075 4.20375 21.0194C4.22525 21.1377 4.25022 21.4515 4.2578 21.478C4.28963 21.5957 4.35627 21.4767 4.35872 21.9086C4.37339 21.8918 4.38808 21.8751 4.4028 21.8583C4.59086 22.3376 4.54422 22.4386 4.57059 22.5399C4.57433 22.5527 4.64541 22.661 4.6664 22.7329C4.70163 22.8545 4.67837 22.9178 4.68632 22.945C4.71401 23.0412 4.85272 23.3453 4.89991 23.5626C4.99501 23.4752 5.34499 24.1456 5.29965 24.3592C5.38561 24.4679 5.4729 24.5749 5.56147 24.6802C5.56967 24.7449 5.57854 24.81 5.58782 24.875C5.62635 24.8963 5.66492 24.9173 5.70352 24.9381C5.75562 25.1347 5.81195 25.3304 5.87347 25.5267C5.9239 25.5102 5.97427 25.4936 6.02458 25.4769C6.04883 25.5267 6.07338 25.5764 6.09824 25.6259C6.08705 25.6843 6.07622 25.7428 6.06577 25.8015C6.11038 25.8553 6.15532 25.9088 6.20064 25.9618C6.23481 25.9595 6.26894 25.957 6.30304 25.9545C6.54279 26.2369 6.19795 26.2557 6.82498 26.6711C6.874 26.7722 6.92434 26.873 6.976 26.9733C7.14237 26.998 7.23857 27.22 7.37302 27.3527C7.46762 27.4459 7.49608 27.4106 7.61808 27.5425C7.74081 27.6739 7.70569 27.6983 7.71498 27.7088C7.81415 27.8176 7.91883 27.8702 7.98924 27.9519C7.99994 27.9641 7.99194 28.0294 8.08804 28.1283C8.18458 28.2269 8.28167 28.2452 8.42468 28.3915C8.49831 28.4663 8.49182 28.5187 8.55884 28.5838C8.88089 28.8968 9.36149 29.0013 9.47186 29.4075C9.55148 29.429 10.0601 29.6527 10.2507 29.7824C10.5471 29.988 10.4039 29.9546 10.5206 30.0395C10.5378 30.0513 10.6393 30.0971 10.8998 30.2528C10.9465 30.2806 10.95 30.2493 10.9569 30.2529C11.261 30.4332 11.8617 30.7676 12.2164 30.9266C12.2485 30.9411 12.4446 30.9431 12.6885 31.1582C13.1372 31.2594 13.9011 31.6999 14.5214 31.7269C14.6026 31.7449 14.6943 31.7964 14.7306 31.8039C15.045 31.8642 14.9434 31.7649 15.6302 32.0173C15.5797 31.9635 15.7538 31.9539 15.987 31.9906C16.3399 32.0435 16.0775 32.0928 16.3652 32.1208C16.3678 32.0976 16.3705 32.0744 16.3731 32.0512C17.025 32.182 17.1667 32.0908 17.8277 32.105C17.8809 32.1056 17.9398 32.1085 18 32.1125C18.2105 32.1267 18.4345 32.1513 18.4788 32.1498C18.5014 32.1495 18.7579 32.0819 18.7834 32.0795C18.9237 32.07 19.0045 32.0904 19.1253 32.0812C19.5234 32.0525 19.9878 31.9136 19.9196 32.057C20.0253 32.0144 20.1288 31.9708 20.2336 31.9257C20.6695 32.0002 20.9347 31.7411 21.0487 31.8576C21.1156 31.8138 21.1817 31.7695 21.2473 31.7248C22.9798 31.3324 24.6377 30.6041 26.1069 29.591C26.1428 29.5184 26.7723 29.0652 26.8049 29.0414C26.9668 28.9505 26.8784 29.1497 27.1539 28.8922C27.1584 28.833 27.1626 28.7738 27.1664 28.7148C27.5108 28.3968 27.3682 28.576 27.5258 28.4736C27.5796 28.4174 27.539 28.4102 27.6142 28.3372C28.0292 27.9487 28.8165 27.0888 29.1836 26.5878C29.2592 26.4882 29.2721 26.5215 29.2957 26.4905C29.36 26.4048 29.4541 26.2124 29.5761 26.0366C30.3516 24.961 31.191 23.266 31.5772 21.9843C31.6047 21.8979 31.643 21.8971 31.6614 21.8384C31.687 21.7571 31.7076 21.565 31.732 21.4796C31.7552 21.3988 31.7951 21.3531 31.819 21.266C31.9304 20.8657 31.9853 20.3122 32.123 19.8845C32.1365 19.8504 32.3358 19.3995 32.3447 19.3896C32.4067 19.3311 32.4617 19.7638 32.6037 19.0766C32.6214 19.7023 32.782 19.5317 32.8927 18.7071C32.8897 19.1233 32.8698 19.5361 32.8323 19.9513C32.8474 19.9539 32.8626 19.9565 32.8778 19.9591C33.0013 19.5916 33.0674 19.217 33.0999 18.6358C33.1134 18.6545 33.1269 18.6732 33.1403 18.6919C33.1903 19.2113 33.1381 19.8332 33.1751 20.238C33.3302 19.674 33.4539 19.0945 33.5446 18.5083C33.5549 18.538 33.5651 18.5678 33.5752 18.5977C33.597 18.8808 33.5664 19.502 33.5644 19.7397C33.5643 20.6523 33.7248 18.9592 33.7527 19.2412C33.6761 20.1998 33.512 21.1509 33.2622 22.0789C33.3959 22.1521 34.0619 18.487 34.1019 18.5092C34.1019 18.8157 34.0929 19.1267 34.0753 19.4341C34.1229 19.3005 34.1689 19.1655 34.2133 19.0291C34.2222 19.068 34.2309 19.107 34.2396 19.1459C34.2309 19.671 34.1967 20.1985 34.1367 20.724C34.3613 19.1302 34.3448 18.3931 34.6362 18C34.6434 18.0445 34.6503 18.089 34.6572 18.1335C34.4959 18.4873 34.4495 20.1388 34.3 21.015C34.3884 20.8472 34.4632 20.0704 34.5078 19.9094C34.5221 19.8638 34.5388 20.0304 34.5695 19.9245C34.662 19.6499 34.7904 18.4389 34.8355 18.617C34.8959 18.7315 34.7583 20.7023 34.652 21.0797C34.8825 20.2015 34.9965 19.2704 35.0966 18.3598C35.1939 18.9366 35.3193 19.4679 35.1769 20.5313C35.2145 20.8714 35.5289 18.6089 35.5272 18.5543C35.5501 18.9482 35.5593 19.3513 35.5553 19.7488C35.5789 19.4145 35.5932 19.075 35.5977 18.7399C35.6094 18.7395 35.6212 18.739 35.6329 18.7385C35.6488 19.6127 35.6645 20.4255 35.4672 21.4184C35.536 21.3999 35.6384 20.8001 35.6766 20.5104ZM28.7696 8.55284C28.7419 8.59867 28.5516 8.37097 28.4373 8.24868C28.4477 8.27343 28.4579 8.29819 28.4681 8.32296C28.2369 8.05184 27.7715 7.57605 27.6841 7.63453C27.4904 7.47182 27.6307 7.484 27.5769 7.4214C27.5557 7.39631 27.2764 7.21351 27.1108 6.99766C27.062 6.95752 27.013 6.91777 26.9637 6.8783C26.9337 6.89608 26.9037 6.91393 26.8737 6.93184C26.8304 6.84614 26.786 6.7606 26.7405 6.67525C27.474 7.23334 28.1543 7.86278 28.7686 8.5518C28.7689 8.55215 28.7692 8.55249 28.7696 8.55284ZM20.9644 4.02419C20.6421 3.93454 20.1373 3.82617 20.2262 3.93123C20.436 3.95935 20.6445 3.99206 20.8515 4.02924C20.8888 4.02734 20.9268 4.02572 20.9644 4.02419ZM5.78168 25.5376C5.85586 25.8236 6.06008 26.0016 6.29959 26.365C6.3144 26.3537 6.32922 26.3424 6.34403 26.3311C6.20286 26.2134 5.96213 25.8081 5.78168 25.5376ZM32.5244 15.9755C32.5262 16.039 32.5276 16.1025 32.5285 16.1661C32.3962 15.9241 32.4605 15.872 32.4044 15.5855C32.4009 15.5684 32.3793 15.5781 32.3781 15.5721C32.3649 15.5025 32.3807 15.4332 32.3689 15.3702C32.3456 15.2487 32.3003 15.1564 32.2559 14.9418C32.2211 14.7763 32.2629 14.7652 32.2487 14.7074C32.2374 14.6568 32.0024 14.2008 31.9595 13.8794C31.9101 13.2509 32.5663 15.7742 32.5244 15.9755ZM32.5788 17.801C32.5776 17.74 32.576 17.6792 32.574 17.6184C32.6455 17.7998 32.629 17.4305 32.6111 17.1597C32.6784 17.1656 32.6753 17.7394 32.6912 18C32.6542 17.933 32.6167 17.8667 32.5788 17.801ZM30.6277 10.4329C30.7562 10.6355 30.6649 10.6422 30.6394 10.6457C30.6012 10.5802 30.5625 10.5151 30.5233 10.4503C30.5581 10.4444 30.5929 10.4386 30.6277 10.4329ZM31.4845 12.0198C31.4056 11.9726 31.1651 11.5131 31.0461 11.2978C31.041 11.2883 31.0993 11.3343 31.0163 11.1813C30.993 11.1337 30.6485 10.7385 30.8114 10.7763C31.0553 11.1791 31.28 11.5941 31.4842 12.0192C31.4843 12.0194 31.4844 12.0196 31.4845 12.0198ZM31.6594 12.5168C31.6069 12.4323 31.5536 12.3488 31.4995 12.2656C31.5035 12.209 31.5071 12.1522 31.5104 12.0954C31.5612 12.1952 31.6109 12.2957 31.6593 12.3965C31.6595 12.4366 31.6595 12.4767 31.6594 12.5168ZM27.3277 29.4756C27.2925 29.4687 27.2574 29.4616 27.2223 29.4545C27.1448 29.4975 26.8766 29.8555 26.9987 29.7908C27.1102 29.6872 27.2199 29.5822 27.3277 29.4756ZM28.7103 28.2803C28.7828 28.2249 28.8549 28.1687 28.9266 28.1118C28.9629 28.0037 28.9978 27.8956 29.0312 27.7875C28.7114 28.1025 28.3489 28.4104 28.5007 28.4539C28.428 28.5269 28.3547 28.5991 28.2805 28.6705C28.303 28.5689 28.2822 28.5654 28.063 28.7228C28.0746 28.8208 27.8446 28.9811 27.6152 29.2008C27.7935 29.0537 27.9684 28.9025 28.1398 28.7471C28.1494 28.7572 28.159 28.7674 28.1686 28.7776C27.7854 29.1257 28.3222 28.7564 28.5197 28.4749C28.5517 28.4692 28.5837 28.4634 28.6157 28.4575C28.6477 28.3986 28.6792 28.3395 28.7103 28.2803ZM3.33358 15.8757C3.31057 15.937 3.28794 15.9985 3.26569 16.0603C3.41676 16.3298 3.30397 15.8059 3.51061 15.4752C3.38033 15.5731 3.4832 15.0351 3.48472 15.0037C3.43571 15.0579 3.38703 15.1125 3.33862 15.1678C3.33137 15.4037 3.32939 15.6417 3.33358 15.8757ZM3.05945 17.6822C3.1033 17.5822 3.12128 17.7505 3.13299 18C3.14612 18.3049 3.15883 18.7217 3.16135 18.9256C3.16166 19.0153 3.12332 19.1782 3.13514 19.2422C3.15685 19.2797 3.1787 19.317 3.20068 19.3542C3.13726 19.4052 3.28902 20.1144 3.37301 20.3844C3.3542 20.4144 3.33547 20.4444 3.31684 20.4746C3.34302 20.575 3.37021 20.6748 3.39838 20.774C3.37312 20.7656 3.34785 20.7572 3.3226 20.7487C3.36441 20.8204 3.40673 20.8914 3.44954 20.9619C3.54231 21.2547 3.37915 21.097 3.4676 21.3135C3.56755 21.5526 3.54785 21.1282 3.5988 21.1257C3.54102 20.9273 3.42837 20.4742 3.39681 20.2657C3.37937 20.1465 3.48086 20.2714 3.31527 19.7712C3.32527 19.6557 3.33646 19.539 3.34925 19.4252C3.29216 19.223 3.23914 19.0179 3.1904 18.81C3.22087 18.769 3.25155 18.7288 3.28237 18.6888C3.28457 18.6675 3.1971 18.1882 3.17458 18.2134C3.19149 18.1574 3.20435 18.0849 3.21478 18C3.24096 17.7854 3.25271 17.4949 3.27134 17.1943C3.25581 17.1526 3.24046 17.1109 3.22527 17.069C3.24084 17.4806 3.19924 17.1983 3.15911 17.3187C3.13597 17.3879 3.09027 17.6028 3.05945 17.6822ZM24.996 31.113C25.56 30.7098 25.2231 30.9821 25.8601 30.5964C25.7937 30.5883 25.7275 30.5796 25.6615 30.5705C25.3936 30.8288 24.8388 31.068 24.9954 31.1133C24.9956 31.1132 24.9958 31.1131 24.996 31.113ZM30.2318 26.1908C30.0321 26.5276 30.2005 26.4055 29.9243 26.821C29.9241 26.8212 29.924 26.8214 29.9238 26.8216C30.0811 26.6173 30.2334 26.4084 30.38 26.1961C30.3305 26.1945 30.2811 26.1928 30.2318 26.1908ZM10.0308 30.4383C9.72643 30.2181 9.76905 30.2856 9.52709 30.0377C9.06923 29.807 9.42343 30.0481 9.38224 30.107C9.48957 30.1576 9.59732 30.2068 9.70547 30.2546C9.90196 30.4678 9.66088 30.3471 9.65703 30.3521C9.65723 30.3522 9.65743 30.3524 9.65763 30.3525C9.64552 30.3704 9.63514 30.3692 9.71851 30.4407C9.82299 30.4411 9.92709 30.4403 10.0308 30.4383ZM8.6714 29.567C8.80297 29.6107 8.88411 29.5993 8.64217 29.3623C8.64199 29.3621 8.64181 29.362 8.64162 29.3618C8.55202 29.4276 8.35843 29.152 8.24403 29.0591C8.20726 29.0421 8.17052 29.025 8.13381 29.0077C8.30758 29.1983 8.48701 29.3849 8.6714 29.567ZM4.93216 25.2838C5.03525 25.2255 5.18289 25.4672 5.0838 25.0652C5.04464 24.9982 5.00627 24.9313 4.96827 24.8638C4.9216 24.8311 4.87504 24.7979 4.82858 24.7644C4.59359 23.7854 4.11277 23.6846 4.99753 25.1125C4.99771 25.1126 4.9979 25.1128 4.99808 25.113C4.9758 25.1697 4.95383 25.2266 4.93216 25.2838ZM5.8852 26.758C5.94291 26.7318 6.00055 26.7055 6.0581 26.6791C6.06626 26.9439 6.34814 27.0843 6.53878 27.4811C6.57813 27.499 6.6175 27.5167 6.65689 27.5341C6.71137 27.6977 7.79874 28.8416 7.63042 28.5254C7.55362 28.3927 7.28903 28.2006 7.27104 28.1788C7.20947 28.107 7.16462 27.9812 7.05624 27.8658C6.99355 27.7993 6.81797 27.696 6.69668 27.5522C6.42054 27.2308 6.094 26.5289 5.6619 26.1576C5.65558 26.1142 5.64947 26.0708 5.64358 26.0275C5.41442 25.6907 5.43511 25.8357 5.30057 25.4743C4.89657 25.4087 6.13959 26.7545 5.7406 26.5722C5.74073 26.5724 5.74087 26.5726 5.74101 26.5728C5.78861 26.6349 5.83668 26.6967 5.8852 26.758ZM15.2932 32.6136C15.3077 32.6721 15.7932 32.6692 15.6625 32.7761C15.8244 32.7568 15.984 32.7346 16.1438 32.71C16.1441 32.6982 16.1444 32.6863 16.1446 32.6744C15.9905 32.6645 15.8376 32.6523 15.6835 32.6376C15.6859 32.619 15.6882 32.6004 15.6905 32.5818C15.4508 32.622 14.5172 32.3942 14.5637 32.3306C14.5077 32.346 14.4515 32.3611 14.3951 32.3758C13.9702 32.1901 13.5696 32.1566 13.1225 31.9223C13.0785 31.9314 13.0345 31.9404 12.9903 31.9492C12.9729 31.9231 12.9557 31.8969 12.9386 31.8708C12.7688 31.8063 12.6004 31.7387 12.4337 31.6682C11.8565 31.5123 12.8879 32.0413 13.0302 32.0681C13.0483 32.0728 13.0617 32.0265 13.174 32.0572C13.3697 32.1224 14.4691 32.4902 14.8298 32.5225C14.826 32.5545 14.8222 32.5866 14.8185 32.6187C14.978 32.6198 15.1355 32.6179 15.2932 32.6136ZM4.11414 23.223C4.13557 23.187 4.15712 23.1512 4.17879 23.1155C3.9936 22.7081 3.9399 22.4274 3.87114 22.5707C3.87121 22.571 3.87129 22.5712 3.87136 22.5714C3.94736 22.7911 4.02794 23.0073 4.11414 23.223ZM22.7112 3.96161C22.7214 3.89658 22.5225 3.80309 22.2432 3.76871C22.2507 3.79062 22.258 3.81254 22.2654 3.83445C22.4189 3.82378 22.5653 3.96579 22.9868 4.10199C22.9979 4.0712 23.0089 4.04041 23.02 4.00962C22.9171 3.99251 22.8142 3.97651 22.7112 3.96161ZM4.2425 23.5897C4.25745 23.7322 4.51846 24.0388 4.42342 23.8045C4.35171 23.626 4.23433 23.5139 4.2425 23.5897ZM31.0754 24.9029C31.022 24.9892 30.9678 25.0749 30.9126 25.1601C30.9113 25.2198 30.9096 25.2795 30.9075 25.3394C30.9076 25.3392 30.9078 25.3389 30.9079 25.3387C30.9661 25.1941 31.0222 25.0485 31.0754 24.9029ZM11.1425 31.0795C10.8371 30.9236 10.5363 30.7566 10.242 30.5795C10.2296 30.5931 10.2171 30.6067 10.2046 30.6203C10.533 30.7448 10.6176 30.8724 10.6857 30.9167C10.6854 30.9165 10.6851 30.9164 10.6848 30.9162C10.9031 31.0566 11.1155 31.1818 11.3253 31.3115C11.2633 31.2345 11.2024 31.1572 11.1425 31.0795ZM12.1598 31.6898C12.1568 31.5473 12.0926 31.5119 11.5768 31.3669C11.5888 31.3902 11.6009 31.4135 11.6131 31.4368C11.8655 31.5463 12.025 31.5823 11.9535 31.6242C12.0221 31.6466 12.0909 31.6684 12.1598 31.6898ZM7.69883 28.6801C7.71483 28.7555 8.11482 29.0686 8.10895 29.0333C8.10363 29.0222 7.66382 28.5382 7.69883 28.6801ZM26.1529 5.60787C26.0611 5.53609 25.9682 5.4653 25.8744 5.39552C26.0132 5.466 26.151 5.53871 26.2877 5.61363C26.2427 5.61149 26.1978 5.60957 26.1529 5.60787ZM27.3004 6.2124C27.3549 6.27756 27.0744 6.19752 27.4411 6.53336C27.161 6.30556 26.8723 6.08771 26.5765 5.88097C26.7254 5.96374 26.8729 6.04901 27.0196 6.13727C27.016 6.09295 27.0123 6.04857 27.0083 6.00415C27.1065 6.0724 27.2039 6.14182 27.3004 6.2124ZM27.5507 6.5243C27.4589 6.3267 28.2471 6.99969 28.3038 7.08076C28.3178 7.09738 28.3458 7.21579 28.3627 7.25203C28.2507 7.14414 28.137 7.03797 28.0217 6.93361C28.0462 6.98404 28.0704 7.03455 28.0942 7.08509C27.9563 6.96721 27.8164 6.85205 27.6745 6.73946C27.7469 6.774 27.8191 6.8092 27.8911 6.84506C27.7794 6.73647 27.666 6.62953 27.5507 6.5243ZM24.047 4.36859C24.1649 4.42337 24.2819 4.47964 24.398 4.53737C24.3887 4.4967 24.3792 4.45601 24.3695 4.4153C24.2987 4.38207 24.2277 4.34938 24.1564 4.31723C24.1198 4.33422 24.0833 4.35134 24.047 4.36859ZM26.3819 5.61795C26.1395 5.64262 25.8916 5.07262 26.3298 5.5114C26.3735 5.55612 26.4053 5.61548 26.3819 5.61795ZM28.5693 7.36411C28.9375 7.57292 28.6924 7.68307 28.475 7.36148C28.464 7.34516 28.5416 7.34854 28.5693 7.36411ZM30.5034 9.71389C30.5206 9.7424 30.4853 9.83291 30.7186 10.0567C30.7382 10.1056 30.7575 10.1547 30.7766 10.2038C30.6884 10.1142 30.0914 9.27222 30.235 9.34483C30.3278 9.47371 30.4145 9.57568 30.5034 9.71389ZM30.1603 8.71044C30.0618 8.58543 29.9614 8.46203 29.8592 8.34027C29.8724 8.39715 29.8852 8.45399 29.8977 8.5108C29.8436 8.45436 29.7892 8.39838 29.7344 8.34286C29.6841 8.21209 29.6317 8.08151 29.5773 7.95124C29.8099 8.20825 30.0339 8.47301 30.249 8.74552C30.2194 8.73371 30.1899 8.72202 30.1603 8.71044ZM27.2012 5.69318C27.4275 5.90344 27.7454 6.10754 28.118 6.44069C28.1182 6.44091 28.1183 6.44114 28.1184 6.44136C28.1369 6.45808 28.1467 6.51361 28.2054 6.56786C28.265 6.60271 29.2508 7.52173 29.1267 7.49488C28.7304 7.15628 28.6433 6.96774 28.4622 6.97765C28.4633 6.93998 28.4643 6.90226 28.4651 6.86448C28.1324 6.4883 27.9567 6.47047 27.7213 6.31845C27.7357 6.3029 27.7501 6.28734 27.7644 6.27179C27.6222 6.15051 27.4779 6.03191 27.3313 5.91585C27.3437 5.94298 27.3559 5.97013 27.368 5.99728C27.3161 5.95666 27.2638 5.91637 27.2113 5.87642C27.1215 5.72916 26.9642 5.59566 27.2012 5.69318ZM30.5565 9.3135C30.7839 9.33535 31.4621 10.6143 31.764 11.1943C31.5263 10.9283 31.3314 10.4311 31.1367 10.1092C30.757 9.49071 30.9706 9.94913 30.8839 9.85833C30.8422 9.81396 30.7035 9.41384 30.5565 9.3135ZM26.2638 5.07719C26.5605 5.28392 26.7491 5.36946 26.9686 5.60005C26.9405 5.59418 26.9125 5.58841 26.8844 5.58272C26.8081 5.50654 26.0989 4.99762 26.2638 5.07719ZM32.125 12.0856C31.9002 11.4209 31.9049 11.7977 31.8517 11.4224C31.9605 11.6351 32.0647 11.8511 32.1637 12.0694C32.1508 12.0748 32.1379 12.0802 32.125 12.0856ZM4.00636 24.5554C4.12824 24.8253 4.25463 25.1352 4.3919 25.2625C4.30531 25.0807 4.22226 24.8972 4.14281 24.7121C4.09694 24.6601 4.05157 24.6081 4.00636 24.5554ZM2.05445 16.2423C2.0316 16.3117 2.04808 16.5913 2.04617 16.6205C2.04159 16.6746 2.02184 16.6581 2.01628 16.6584C1.99269 17.0139 2.08226 16.6911 2.07816 16.9545C2.07509 17.0004 2.01355 17.6127 2.01766 17.866C2.01776 17.9108 2.01794 17.9556 2.01821 18C2.01989 18.341 2.02963 18.6565 2.03695 18.7834C2.04979 19.0287 2.13013 19.4736 2.18023 19.8707C2.20066 20.0342 2.16905 20.0962 2.19293 20.2601C2.31449 21.3223 2.94311 23.3278 3.31789 24.1917C3.40266 24.4089 3.44797 24.6327 3.50409 24.7429C3.56228 24.8233 3.62096 24.9026 3.6806 24.9819C3.66149 25.3256 3.84236 25.3487 4.0088 25.6232C4.11577 25.7978 4.12043 25.9052 4.13413 25.9292C4.22605 26.0871 4.29274 26.1521 4.37022 26.2723C4.4571 26.4076 4.56217 26.6145 4.59713 26.6605C4.62021 26.6874 4.60777 26.562 4.95783 27.0751C5.31889 27.595 5.70116 28.0914 6.12754 28.5747C6.13572 28.2811 5.91296 28.2339 5.74009 28.0351C5.69407 27.9819 5.74698 27.9962 5.70736 27.9497C5.59519 27.8188 5.36768 27.5761 5.28879 27.4561C5.20345 27.327 5.29418 27.3262 5.15786 27.1838C5.15096 27.1766 5.14431 27.2199 5.11335 27.1854C4.80545 26.8354 4.76225 26.6806 4.45738 26.1816C4.21527 25.8735 3.18292 23.7526 3.21036 23.6536C3.13241 23.2371 4.11527 25.4968 4.29688 25.729C4.34414 25.8183 4.26239 25.7429 4.30246 25.8262C4.31966 25.8618 4.54981 26.1333 4.74067 26.4218C4.96552 26.7735 5.41972 27.4841 5.67463 27.7931C7.81977 30.4723 10.7887 32.4478 14.1269 33.2889C14.1979 33.3066 14.3001 33.2934 14.5323 33.346C15.6595 33.6001 16.8258 33.7321 18 33.7347C21.3437 33.7577 24.7346 32.6478 27.3965 30.6318C28.1827 30.0406 28.8834 29.3612 29.5752 28.6527C29.6378 28.5432 29.6988 28.4332 29.7583 28.3228C29.5705 28.5752 29.1267 28.9445 29.0885 28.979C29.0751 28.992 29.0146 29.0989 28.8762 29.2308C28.6813 29.4159 28.5749 29.4742 28.5589 29.4893C28.5086 29.5353 28.5614 29.5268 28.513 29.5706C28.1516 29.8962 27.8666 30.1432 27.5127 30.4162C27.1107 30.7226 26.8693 30.8219 26.5969 31.0749C26.5493 31.0783 26.5017 31.0815 26.4543 31.0844C26.2907 31.3345 24.8541 32.1352 24.233 32.3712C24.0398 32.4526 24.0577 32.3996 23.9931 32.4268C23.9511 32.4425 23.9914 32.4922 23.4751 32.6775C23.2145 32.7683 23.1336 32.7535 23.0036 32.7993C22.9328 32.8239 22.9567 32.857 22.8541 32.8906C22.2603 33.0824 21.7646 33.1999 21.1648 33.3173C20.9967 33.3495 20.9886 33.3174 20.9512 33.3251C20.8139 33.3527 20.5803 33.4525 20.2246 33.5031C19.6486 33.5957 18.5015 33.6696 18 33.6342C17.9913 33.6337 17.9827 33.6333 17.9744 33.6328C17.9029 33.6287 17.8442 33.5893 17.792 33.5892C17.7129 33.5891 17.6811 33.6289 17.6671 33.6288C17.4026 33.6229 17.5628 33.5895 17.386 33.5926C17.2909 33.5937 17.1898 33.6363 16.9664 33.6273C16.6724 33.6139 16.7349 33.5622 16.6126 33.5576C16.5997 33.5573 16.5925 33.5953 16.4727 33.5852C16.016 33.5482 15.358 33.4591 14.9345 33.3722C14.8133 33.348 14.7268 33.3041 14.558 33.266C14.2101 33.2229 12.3138 32.6315 12.1784 32.5277C12.1632 32.5198 12.3468 32.5335 12.0868 32.43C12.0027 32.4208 11.9188 32.411 11.8343 32.4003C11.7233 32.3119 11.614 32.2222 11.5066 32.1315C11.4563 32.2564 10.7223 31.9179 10.7941 31.8004C10.7191 31.7551 10.6447 31.7093 10.5706 31.6628C10.3668 31.6552 10.276 31.568 9.94515 31.4332C9.91238 31.3807 9.87993 31.3281 9.84785 31.2754C9.82626 31.2841 9.80464 31.2928 9.783 31.3014C9.67606 31.1169 9.36391 31.0338 9.33208 31.0126C9.21076 30.9343 9.13595 30.8511 9.08003 30.8131C8.87021 30.6728 8.4094 30.3733 8.19088 30.1727C8.18065 30.1633 8.21835 30.1383 8.15675 30.0812C8.04627 29.978 7.99337 30.0172 7.88812 29.8297C7.84504 29.8175 7.80197 29.8051 7.75888 29.7924C7.73255 29.7567 7.70639 29.7209 7.68042 29.685C7.48602 29.5198 7.29542 29.3497 7.10909 29.175C7.32693 29.2831 7.16269 29.0706 6.94521 28.9325C6.8714 28.8856 6.89267 28.9708 6.86787 28.9553C6.82637 28.9406 6.07011 28.0768 6.05206 27.9938C6.0065 27.9613 5.96104 27.9285 5.91575 27.8955C5.92013 27.8564 5.92465 27.8174 5.92932 27.7784C5.90291 27.7615 5.87652 27.7445 5.85018 27.7274C5.69926 27.4688 5.15418 26.9115 5.0852 26.7863C5.0475 26.7211 5.18202 26.711 4.97642 26.4193C4.94203 26.4268 4.9076 26.4343 4.87314 26.4416C4.8246 26.375 4.77655 26.308 4.72899 26.2405C4.64914 26.1075 4.58386 25.8853 4.61419 25.8594C4.56966 25.8299 4.52521 25.8002 4.48084 25.7701C4.47903 25.6212 4.12908 25.0317 3.96781 24.7999C3.95298 24.7167 3.93911 24.6339 3.92583 24.5509C3.8546 24.4644 3.78412 24.3768 3.71442 24.2881C3.60538 24.0594 3.75493 24.286 3.73693 24.2349C3.69583 24.1288 3.40549 23.6203 3.51245 23.6194C3.4841 23.5457 3.4563 23.4717 3.42905 23.3975C3.38866 23.3691 3.34839 23.3405 3.30823 23.3118C3.35382 23.1514 3.23912 22.9424 3.1333 22.4719C3.10045 22.4398 3.0677 22.4074 3.03504 22.3748C3.0236 22.2229 3.0144 22.071 3.00746 21.9192C2.96416 21.8989 2.92091 21.8784 2.87774 21.8579C2.85665 21.7965 2.83593 21.7348 2.81558 21.6729C2.86449 21.5261 2.72605 21.3149 2.735 21.1889C2.74895 21.0064 2.83101 21.1292 2.91315 21.4428C2.95958 21.4066 2.74713 20.4691 2.71917 20.2474C2.70968 20.2636 2.70022 20.2798 2.69079 20.296C2.73343 20.5199 2.78119 20.7435 2.8335 20.9641C2.72146 21.1811 2.64274 20.5636 2.58572 20.2831C2.58044 20.2576 2.50074 20.1199 2.4721 19.8316C2.45937 19.7188 2.5017 19.2791 2.50164 19.1964C2.49732 18.526 2.40259 19.0224 2.48396 18.3655C2.42557 18.4714 2.44311 18.275 2.45101 18C2.45344 17.9159 2.45501 17.8247 2.45294 17.7327C2.44876 17.6656 2.406 17.0998 2.4092 17.0595C2.41426 16.8198 2.46648 17.0839 2.47366 16.7385C2.4584 16.6958 2.4433 16.6529 2.42838 16.6099C2.43544 16.5297 2.44306 16.4503 2.45138 16.3699C2.6691 15.9017 2.56861 15.7793 2.57823 15.6042C2.58288 15.5338 2.61119 15.6296 2.6312 15.4487C2.63911 15.3807 2.61559 15.2995 2.64664 15.118C2.74884 14.549 2.94356 14.3983 2.92512 13.8456C2.96917 13.7732 3.01373 13.7014 3.05877 13.6302C3.04729 13.5699 3.03617 13.5094 3.0254 13.4488C3.22724 13.0717 3.10425 13.1918 3.15219 13.0474C3.27518 12.6656 3.59724 11.9088 3.69038 11.8719C3.6852 11.4916 4.02239 11.1909 4.07774 11.0685C4.09708 10.988 4.1171 10.9075 4.13779 10.8271C4.19818 10.7513 4.25916 10.6762 4.32072 10.602C4.16498 10.57 4.53502 10.2103 4.56186 10.1729C4.58744 10.1257 4.9455 9.45756 5.10987 9.22782C5.26768 8.99383 5.59252 8.6252 5.61968 8.59188C5.64886 8.55207 5.90905 8.14821 6.15496 7.86469C6.34533 7.59143 7.7731 6.27945 7.65309 6.32808C7.54563 6.39838 7.40061 6.50846 7.28049 6.60975C6.86043 6.87649 4.98342 9.05379 4.64542 9.71637C3.84814 10.954 3.22695 12.3767 2.82149 13.7999C2.79758 13.8837 2.75646 13.8864 2.73635 13.9588C2.70528 14.0693 2.67459 14.3572 2.64943 14.4663C2.55074 14.874 2.45699 15.3714 2.42313 15.5945C2.34679 16.0867 2.28883 16.4287 2.25595 16.8054C2.24393 16.925 2.25741 17.5235 2.23842 17.9358C2.2352 17.9572 2.23201 17.9786 2.22887 18C2.22102 18.0535 2.21345 18.107 2.20613 18.1606C2.2032 18.1188 2.19952 18.0637 2.19581 18C2.17948 17.7388 2.16976 17.3384 2.17898 17.1306C2.19513 16.7436 2.24742 16.5474 2.26041 16.4066C2.26926 16.2872 2.30726 15.6798 2.35508 15.4051C2.36892 15.3199 2.41231 15.3094 2.42484 15.237C2.49138 14.8445 2.60462 14.3304 2.65448 13.9861C2.62754 14.1246 2.88939 13.2811 2.90903 13.2392C2.93299 13.1635 2.92254 13.0695 2.97446 12.9156C3.07653 12.6201 3.13652 12.686 3.19987 12.2927C3.25644 12.211 3.31366 12.13 3.3715 12.0499C3.26628 11.9993 3.89352 10.9479 3.95255 10.5888C3.92835 10.5643 3.21414 11.9887 3.1826 12.1185C2.87113 12.8452 2.56111 13.9743 2.39432 14.7216C2.33714 14.9432 2.15344 15.6518 2.15065 15.706C2.14004 15.7938 2.188 15.72 2.18398 15.7579C2.11156 16.5357 2.08943 16.1416 2.05445 16.2423ZM27.874 6.1352C27.7005 5.98495 27.5237 5.83858 27.3435 5.69599C27.371 5.68743 27.3985 5.67894 27.426 5.67051C27.5044 5.74201 27.582 5.81423 27.6587 5.88716C27.7308 5.92681 27.8026 5.96708 27.8743 6.00798C27.8743 6.05043 27.8742 6.09285 27.874 6.1352ZM28.3673 6.43195C28.524 6.55726 28.4971 6.60105 28.5294 6.63394C28.6252 6.73282 28.7252 6.80031 28.8205 6.89407C28.629 6.87026 28.4297 6.6099 28.3673 6.43195ZM24.9797 4.07155C25.0188 4.09747 25.2273 4.34316 25.5831 4.40783C25.7893 4.56594 25.99 4.72819 26.1867 4.89542C25.8503 4.61407 25.2931 4.37516 25.106 4.27802C25.0349 4.24024 25.0388 4.19874 24.9815 4.16896C24.6497 3.99683 24.285 3.93093 24.3021 3.79805C24.6088 3.97467 24.9306 4.0391 24.9797 4.07155ZM26.891 5.2649C26.9245 5.32113 26.9576 5.37746 26.9902 5.43387C26.8159 5.30891 26.6386 5.18734 26.4594 5.06985C26.5228 5.07892 26.5862 5.08842 26.6498 5.09836C26.7306 5.15306 26.8111 5.20865 26.891 5.2649ZM11.0824 3.99232C11.2027 3.93316 11.3232 3.8758 11.4447 3.81992C11.4297 3.8051 11.2911 3.87007 11.2347 3.88277C11.2349 3.88266 11.2352 3.88255 11.2354 3.88244C11.1723 3.89631 11.1854 3.8617 11.0773 3.90225C11.079 3.93229 11.0806 3.96231 11.0824 3.99232ZM29.9286 28.255C30.106 28.1075 31.3283 26.4145 31.1486 26.5106C31.0736 26.5678 30.6981 27.1704 30.5688 27.3355C30.4032 27.5661 29.8625 28.1036 29.9286 28.255ZM32.0021 25.2063C31.9653 25.1483 31.3188 26.2725 31.2489 26.3795C31.2719 26.3621 31.3132 26.3389 31.3366 26.3111C31.4554 26.1778 31.8618 25.4499 32.0021 25.2063ZM5.23506 8.64567C5.32656 8.58181 5.41855 8.51905 5.51095 8.45749C5.457 8.451 5.40295 8.44476 5.34881 8.43875C5.31029 8.50757 5.2724 8.5765 5.23506 8.64567ZM2.22893 18.2453C2.25235 19.9991 2.56954 21.7525 3.16899 23.4018C3.09798 23.2637 3.02883 23.1241 2.9616 22.983C2.48545 21.5389 2.23219 19.9269 2.16513 18.4641C2.1859 18.391 2.20717 18.318 2.22893 18.2453ZM24.6285 3.66818C24.2192 3.4789 23.8615 3.36644 23.4199 3.14595C23.8785 3.2593 24.0601 3.42217 24.5076 3.53591C24.5079 3.53601 24.5081 3.53612 24.5083 3.53622C24.5488 3.58006 24.5888 3.62404 24.6285 3.66818ZM14.8087 2.52162C14.9359 2.46214 15.0644 2.40421 15.1944 2.34784C15.0309 2.37695 14.8695 2.4083 14.7067 2.44259C14.7408 2.46883 14.7748 2.49517 14.8087 2.52162ZM9.19253 31.3056C9.61916 31.5185 10.6151 32.2306 11.008 32.3139C11.0327 32.3194 10.8436 32.1879 11.2061 32.2852C10.9487 32.1784 10.7674 32.1002 10.7235 32.1398C10.6583 32.0851 10.5936 32.03 10.5296 31.9744C10.4021 31.9222 10.2744 31.8678 10.1478 31.812C10.188 31.7714 10.1768 31.7697 9.97546 31.6957C9.8994 31.6349 9.82422 31.5736 9.7494 31.5115C9.70248 31.5101 9.6555 31.5084 9.60845 31.5065C9.55465 31.4347 9.50166 31.3626 9.44948 31.2902C9.15884 31.143 9.28937 31.3032 9.19253 31.3056ZM7.86346 30.3042C7.89569 30.3915 9.71649 31.629 8.96058 30.9658C8.74687 30.8208 8.53697 30.6708 8.33038 30.5154C8.38831 30.7916 7.93151 30.2266 7.8932 30.1846C7.69119 29.9948 7.39871 29.7933 7.2525 29.6545C7.12669 29.5355 7.07497 29.4409 6.98717 29.3571C6.68539 29.0737 6.24215 28.594 6.12754 28.5747C6.34136 28.817 6.56662 29.0563 6.80658 29.2915C7.06087 29.5379 7.23842 29.8123 7.81134 30.1694C7.93121 30.283 7.85016 30.289 7.86346 30.3042ZM15.6057 2.28783C15.5994 2.36 16.4257 2.23807 16.4292 2.21302C16.4299 2.19488 16.1571 2.22426 16.1178 2.22288C16.1175 2.22291 16.1173 2.22294 16.117 2.22297C16.1005 2.22205 16.1793 2.1835 16.0505 2.19088C15.9012 2.22115 15.753 2.25348 15.6057 2.28783ZM27.6789 30.6146C27.8277 30.619 29.7309 28.8472 29.7308 28.7421C29.7406 28.723 29.7074 28.7318 29.705 28.7185C29.3434 29.2079 28.6708 29.7533 28.2292 30.1148C28.1064 30.2166 28.1618 30.2087 28.1553 30.215C28.1551 30.2153 28.1548 30.2155 28.1545 30.2158C28.0851 30.2753 27.7216 30.4731 27.6789 30.6146ZM11.7773 32.6279C11.6805 32.5738 11.5844 32.5188 11.4891 32.4629C11.4541 32.4727 11.419 32.4825 11.3839 32.4921C11.3841 32.4922 11.3843 32.4923 11.3846 32.4924C11.5149 32.5393 11.6458 32.5844 11.7773 32.6279ZM15.4197 33.7618C15.3957 33.7413 15.3718 33.7207 15.348 33.7C15.0738 33.6517 14.8036 33.5968 14.5319 33.5341C14.5613 33.5311 14.5906 33.528 14.6199 33.5249C14.2158 33.4106 14.0363 33.4214 13.8211 33.3554C13.8214 33.3555 13.8216 33.3556 13.8219 33.3556C13.7989 33.3484 13.7798 33.3078 13.6941 33.2826C13.4969 33.2277 12.9424 33.0374 12.8649 33.0447C12.6961 33.0728 13.8377 33.3967 14.0548 33.4424C14.1507 33.4685 14.2604 33.5259 14.3195 33.5405C14.3843 33.5564 14.4816 33.5378 14.64 33.5732C14.6865 33.5855 15.1918 33.7346 15.4197 33.7618ZM20.3114 33.7536C20.2217 33.7295 20.0499 33.7885 19.9838 33.7904C19.9681 33.7909 20.085 33.7451 19.9374 33.754C19.8985 33.7801 19.8594 33.806 19.8201 33.8317C19.9848 33.8082 20.1485 33.7821 20.3114 33.7536ZM17.0037 2.10367C16.9786 2.09567 16.5288 2.13341 16.5082 2.14195C16.2463 2.23113 17.1728 2.1492 17.0037 2.10367ZM27.7162 5.28144C27.6344 5.04756 29.453 6.74366 29.585 6.94796C29.5337 6.98032 29.1648 6.51968 29.3211 6.79764C29.1522 6.55226 28.5379 6.02005 28.3989 5.88958C28.3163 5.80798 28.328 5.7485 28.3157 5.73583C28.2681 5.68402 27.7552 5.35107 27.7162 5.28144ZM30.8658 8.53843C30.7361 8.34265 30.6018 8.14921 30.4633 7.9589C30.6429 8.17038 30.8174 8.38706 30.986 8.60776C30.946 8.58443 30.9059 8.56132 30.8658 8.53843ZM31.0615 8.76137C31.1095 8.71839 31.5207 9.40588 31.6378 9.58015C31.4274 9.43261 31.2946 9.05073 31.0615 8.76137ZM20.0122 2.04316C19.6486 1.95978 19.4719 2.12597 19.9262 2.09658C19.94 2.09553 20.0272 2.04712 20.0122 2.04316ZM9.14661 31.5829C9.19583 31.6223 9.84011 32.0867 9.8972 32.0803C10.0685 32.0719 9.60257 31.8447 9.47503 31.7208C9.27016 31.5226 9.63787 31.7074 9.052 31.3642C9.08546 31.3641 9.11888 31.3639 9.15225 31.3636C8.82745 31.1381 8.86186 31.3157 8.79326 31.2893C8.77203 31.2813 8.57452 31.1283 8.53352 31.1082C8.01439 30.8626 9.09194 31.5603 9.14661 31.5829ZM11.093 3.45774C10.4074 3.73438 10.7245 3.65944 10.0614 4.0192C10.0561 4.05989 11.0166 3.5231 11.093 3.45774ZM4.22106 26.4047C4.6339 27.0457 4.95668 27.5913 5.45872 28.1015C5.48657 28.0194 4.11865 26.2423 4.22106 26.4047ZM33.1488 23.8932C31.9091 26.6117 29.8221 29.4396 27.2018 31.2381C26.9182 31.4343 26.8653 31.4133 26.7642 31.4857C26.6976 31.5326 26.7289 31.5549 26.6375 31.6134C24.0116 33.2915 20.998 34.159 18 34.1568C17.2232 34.1572 16.453 34.1011 15.6875 33.987C15.4495 33.9626 14.3367 33.6678 14.0731 33.7091C13.8695 33.7512 14.6962 33.8777 14.8323 33.8993C14.9341 33.9199 14.9308 33.9609 14.9991 33.9739C15.0716 33.9875 15.0167 33.9489 15.101 33.9638C15.4589 34.0268 15.8476 34.0934 16.175 34.1272C16.7837 34.1909 17.3911 34.221 18 34.2186C20.5812 34.2091 23.1211 33.6056 25.4247 32.4205C25.7677 32.2418 25.7119 32.3057 25.7294 32.2972C25.7296 32.297 25.7298 32.2968 25.73 32.2966C27.5699 31.3169 29.3807 29.7235 30.7485 28.0082C31.7225 26.8063 32.5259 25.4617 33.1221 24.0277C33.1312 23.9829 33.1401 23.9381 33.1488 23.8932ZM7.89557 30.5295C7.96918 30.7447 8.0739 30.6823 8.6002 31.1283C8.65813 31.1438 8.71605 31.1589 8.77397 31.1737C8.47387 30.9688 8.18048 30.7537 7.89466 30.5288C7.89497 30.529 7.89526 30.5293 7.89557 30.5295ZM11.7644 32.8922C11.8014 33.1056 13.3011 33.5372 13.9733 33.7182C14.1158 33.6732 13.1326 33.442 12.9101 33.3491C12.7968 33.309 12.2262 33.0192 11.765 32.8739C11.7648 32.88 11.7646 32.8861 11.7644 32.8922ZM25.6582 3.66361C25.5564 3.61466 25.4541 3.56677 25.3512 3.51994C25.5945 3.6645 25.8335 3.81518 26.0682 3.97188C25.6848 3.73708 25.292 3.51846 24.8896 3.31614C24.9802 3.32032 25.0709 3.32526 25.1622 3.33122C25.3301 3.43928 25.4955 3.55011 25.6582 3.66361ZM24.3316 3.04863C25.0602 3.35339 24.2693 3.10389 24.1035 2.99562C24.004 2.92833 24.2572 3.01791 24.3316 3.04863ZM22.4132 2.31241C22.7864 2.34845 23.4989 2.58731 23.2073 2.61732C22.8466 2.43729 22.5894 2.40384 22.0376 2.22643C22.1251 2.22464 22.2133 2.22374 22.3013 2.22348C22.3017 2.22358 22.3021 2.22368 22.3024 2.22378C22.3396 2.2532 22.3765 2.28275 22.4132 2.31241ZM24.6924 3.12592C25.1378 3.39751 23.7726 2.77998 24.2228 2.92318C24.2444 2.92796 24.6757 3.11362 24.6924 3.12592ZM31.7491 26.9001C31.7503 26.8264 31.5317 27.1608 31.4526 27.2681C31.1172 27.737 30.6768 28.3318 30.2748 28.7776C30.3145 28.7524 30.354 28.7269 30.3936 28.7012C30.8858 28.1328 31.3392 27.5306 31.7491 26.9001ZM28.9589 30.1128C28.6535 30.3893 28.3376 30.6544 28.0123 30.9071C27.9822 30.9307 27.8596 31.0675 27.9712 30.9925C28.3126 30.7123 28.6421 30.4187 28.9589 30.1128ZM5.85962 28.9284C6.05403 29.1805 5.36192 28.5719 5.48579 28.5206C5.60818 28.6587 5.73281 28.7947 5.85962 28.9284ZM4.05639 26.6058C4.17089 26.7688 4.28815 26.9294 4.40809 27.0876C4.39654 27.0956 4.38499 27.1037 4.37344 27.1117C4.26476 26.9451 4.15905 26.7764 4.05639 26.6058ZM32.5888 25.5089C32.4511 25.6746 32.2169 26.118 32.0539 26.3849C32.2015 26.2223 32.4368 25.7631 32.5888 25.5089ZM9.46122 31.9854C9.45088 31.9533 10.5447 32.5763 10.1363 32.4145C9.90726 32.2767 9.68237 32.1337 9.46122 31.9854ZM11.7221 33.1904C11.469 33.0935 11.2816 32.9958 11.3536 32.9717C11.4837 33.0319 11.6151 33.0907 11.7463 33.1473C11.7383 33.1617 11.7302 33.176 11.7221 33.1904ZM21.0633 1.89524C20.6141 1.81506 20.1639 1.75399 19.7087 1.71142C19.727 1.69917 19.7454 1.68694 19.7638 1.67475C20.2032 1.71713 20.6386 1.77682 21.0726 1.85427C21.0695 1.86793 21.0664 1.88158 21.0633 1.89524ZM32.8186 25.3348C32.9509 25.0474 33.0741 24.7579 33.1895 24.4636C33.0568 24.7508 32.9168 25.0322 32.7682 25.3107C32.7849 25.319 32.8017 25.3273 32.8185 25.3356C32.8185 25.3354 32.8186 25.3351 32.8186 25.3348ZM26.9282 4.03522C25.7603 3.23993 27.3418 4.11577 27.5808 4.42813C27.5811 4.4283 27.5815 4.42846 27.5819 4.42862C27.6035 4.45439 27.5236 4.44833 27.5581 4.49315C27.4522 4.39525 27.3447 4.29843 27.2359 4.20306C27.1144 4.14945 26.9923 4.09741 26.8699 4.04692C26.8386 4.01616 26.8071 3.98551 26.7755 3.95495C26.8265 3.98144 26.8775 4.00819 26.9282 4.03522ZM31.1302 7.82646C31.8867 8.85636 31.0411 7.85816 30.6912 7.32991C30.71 7.31996 31.0604 7.73124 31.1302 7.82646ZM28.8097 5.41827C28.651 5.29411 28.4901 5.17292 28.3273 5.05487C28.3146 5.02963 28.3019 5.00441 28.289 4.9792C28.4175 5.06594 28.5448 5.15443 28.6712 5.24498C28.7178 5.30251 28.764 5.36027 28.8097 5.41827ZM23.1276 2.02916C22.8173 1.92025 22.3856 1.91492 23.3917 2.20477C23.3957 2.19127 23.3998 2.17778 23.4038 2.16428C23.3635 2.15277 23.2429 2.12648 23.2369 2.12348C23.2196 2.1142 23.2562 2.07629 23.1276 2.02916ZM32.7668 9.61129C32.7889 9.6408 32.9326 9.58591 32.9821 10.0008C33.0455 10.0995 33.108 10.1991 33.1695 10.2994C33.1541 10.3413 33.1386 10.383 33.1228 10.4247C32.941 10.0101 32.8556 10.0018 32.8398 9.97342C32.7627 9.84489 32.8457 9.92584 32.7995 9.84078C32.6819 9.61989 32.3698 9.14572 32.5855 9.3167C32.6634 9.37862 32.744 9.58151 32.7668 9.61129ZM32.3797 8.80744C32.399 8.86048 32.2664 8.73464 32.2786 8.77636C32.2915 8.81183 32.5415 9.29905 32.4009 9.21176C32.357 9.13407 32.3125 9.05673 32.2674 8.97976C32.2682 8.94348 32.2689 8.90715 32.2695 8.87078C32.2071 8.80788 32.1444 8.7456 32.0812 8.68394C32.0429 8.53575 31.9192 8.24112 32.161 8.52535C32.0816 8.4145 32.0007 8.30438 31.9187 8.19549C31.8585 8.15151 31.7982 8.10803 31.7378 8.06506C31.7887 8.07364 31.8397 8.08249 31.8907 8.0916C32.0597 8.32604 32.2228 8.56477 32.3797 8.80744ZM34.1863 12.6253C34.1633 12.6154 34.1403 12.6055 34.1173 12.5958C34.314 13.0589 34.526 13.8088 34.2965 13.4137C34.1051 12.7682 33.874 12.1321 33.6066 11.5149C33.6024 11.4683 33.5982 11.4218 33.5935 11.3749C33.7362 11.8592 33.8922 11.6298 33.9876 12.0666C34.0021 12.1403 33.8551 11.9657 34.06 12.3862C34.0722 12.3643 34.0845 12.3424 34.0967 12.3205C34.1275 12.4218 34.1573 12.5233 34.1863 12.6253ZM34.9844 16.8461C34.9442 15.9894 35.0903 16.9253 35.0376 17.0895C35.0376 17.0892 35.0375 17.089 35.0375 17.0887C34.9051 17.5286 34.9299 16.5954 34.9182 16.5394C34.9096 16.4635 34.7873 16.3034 34.8984 15.8756C34.9364 16.1995 34.9649 16.5214 34.9844 16.8461ZM34.5967 14.0758C34.6168 14.1452 34.5801 14.1127 34.5876 14.1429C34.5876 14.1432 34.5877 14.1434 34.5878 14.1437C34.7079 14.5886 34.9072 15.6642 34.8244 15.793C34.7926 15.4564 34.4747 13.9747 34.4973 13.875C34.5308 13.9416 34.564 14.0085 34.5967 14.0758ZM33.4977 11.0449C33.4358 10.7634 33.7042 11.3401 33.7392 11.5052C33.7454 11.5362 33.5613 11.3349 33.4977 11.0449ZM15.9495 0.986338C15.3358 1.09975 16.1516 1.03209 15.8778 1.12248C15.9946 1.10318 16.1118 1.08506 16.2295 1.06814C16.1366 1.04012 16.0432 1.01285 15.9495 0.986338ZM1.12328 21.5717C1.14741 21.7166 1.16615 21.6414 1.16926 21.6538C1.18862 21.7479 1.18181 21.8424 1.19295 21.8778C1.40601 22.527 1.32775 22.0793 1.3322 22.0718C1.36151 22.0502 1.44128 22.2129 1.42082 21.9654C1.37474 21.8233 1.33043 21.6802 1.28794 21.5361C1.29083 21.4594 1.29436 21.3834 1.29841 21.3075C1.20312 21.0252 1.26531 21.4066 1.2231 21.4605C1.20618 21.4818 1.12522 21.2109 1.12328 21.5717ZM14.8242 1.04449C14.7344 1.12081 14.5075 1.2417 14.7563 1.25315C14.7566 1.25309 14.7569 1.25304 14.7571 1.25299C14.803 1.25492 14.9833 1.2277 15.0411 1.23327C15.4222 1.09015 15.2599 1.03135 14.8242 1.04449ZM0.670138 18.8979C0.671481 18.6543 0.677859 18.4103 0.689314 18.1657C0.72467 18.1695 0.760026 18.1733 0.795384 18.1771C0.787177 18.3072 0.780416 18.4372 0.775095 18.5671C0.79267 18.612 0.810418 18.6568 0.828335 18.7014C0.862149 18.5396 0.898202 18.3784 0.936475 18.2179C0.930273 18.1454 0.924523 18.0728 0.919228 18C0.910444 17.8792 0.902915 17.7586 0.896636 17.638C0.876161 17.7263 0.856356 17.815 0.837232 17.9042C0.822565 17.4298 0.906989 17.5344 0.956006 17.1486C0.929884 17.0137 0.905391 16.8775 0.882464 16.7414C0.929336 16.5498 0.979196 16.3616 1.03239 16.1726C1.05288 15.8477 1.03322 15.8159 0.969843 16.0296C0.945815 15.863 1.0351 15.6954 1.0459 15.5008C1.04683 15.4847 1.00253 15.5088 1.00411 15.4947C1.13523 14.489 1.25061 14.5689 1.28347 14.4109C1.30848 14.3002 1.34332 13.8426 1.32276 13.8297C1.2969 13.8115 0.92826 14.7078 1.3036 13.2577C1.00118 13.9809 0.92846 14.8698 1.17059 14.3389C1.0966 14.5727 0.953077 15.6363 0.948081 15.7032C0.929213 15.801 0.884089 15.7599 0.867365 15.884C0.859112 15.9581 0.941825 16.163 0.798216 16.7353C0.811478 16.8112 0.825232 16.8869 0.839476 16.9626C0.819969 17.0313 0.800826 17.1013 0.782185 17.1696C0.734201 17.0236 0.688168 16.8746 0.643964 16.7258C0.65965 17.238 0.569745 17.6612 0.614569 18C0.620576 18.045 0.629003 18.0882 0.640427 18.1294C0.632135 18.4327 0.627887 18.5797 0.575617 18.4509C0.577934 18.542 0.580949 18.6329 0.58466 18.7237C0.612867 18.7821 0.641356 18.84 0.670138 18.8979ZM13.0559 1.55985C12.7555 1.59349 12.6892 1.74161 12.7356 1.73313C12.9945 1.68778 13.2116 1.54351 13.0559 1.55985ZM1.0817 21.0285C1.05399 20.6989 1.03623 20.3714 1.02774 20.0431C0.990652 20.0475 0.953562 20.0519 0.916472 20.0564C0.962308 20.3824 1.01722 20.7055 1.0817 21.0285ZM16.0307 0.892314C16.064 0.916694 16.0972 0.941168 16.1302 0.965736C16.4775 0.824678 16.8449 0.946453 17.0198 0.906584C17.0579 0.897839 16.9773 0.852698 16.903 0.846796C16.8559 0.838972 16.0946 0.87121 16.0307 0.892314ZM29.8133 5.49063C29.7029 5.4122 29.5917 5.33516 29.4799 5.25962C29.5065 5.24118 29.5331 5.22278 29.5597 5.2044C29.6129 5.24455 29.6659 5.28507 29.7186 5.32589C29.7506 5.38071 29.7821 5.43562 29.8133 5.49063ZM28.6281 4.5321C28.4425 4.38223 28.2535 4.23602 28.0619 4.09401C28.8095 4.61513 28.2205 4.15369 28.6849 4.46027C28.6659 4.48421 28.647 4.50816 28.6281 4.5321ZM26.6665 3.11742C26.7013 3.11602 26.7363 3.11473 26.7713 3.11355C26.9779 3.23553 27.1828 3.36232 27.3843 3.49295C27.2923 3.35555 27.1977 3.21884 27.1004 3.08291C27.0244 3.03627 26.9484 2.99038 26.8718 2.94496C26.803 3.00216 26.7346 3.05965 26.6665 3.11742ZM3.49639 27.5935C3.57444 27.7174 3.91288 28.1012 3.91812 28.07C3.81667 27.8841 3.71853 27.6962 3.62455 27.5076C3.59281 27.5275 3.56107 27.5474 3.52933 27.5672C3.52842 27.5321 3.52763 27.497 3.52695 27.462C3.4498 27.3697 3.37349 27.2765 3.29805 27.1824C3.29374 27.1138 3.28987 27.0453 3.28643 26.977C3.22304 26.9449 3.15988 26.9126 3.0967 26.8797C3.34029 27.4097 3.39231 27.3546 3.45571 27.4565C3.48877 27.5078 3.49073 27.5528 3.49298 27.5773C3.49411 27.5827 3.49525 27.5881 3.49639 27.5935ZM0.808258 20.8431C0.914561 21.5309 1.10101 21.8951 1.14497 22.3999C1.20572 22.0563 0.64573 20.0482 0.77304 19.3018C0.739347 19.2286 0.70611 19.1549 0.673339 19.0808C0.723177 19.4771 0.693786 19.7527 0.707013 19.9492C0.717876 20.1038 0.745761 20.0841 0.746637 20.0959C0.746704 20.0965 0.74677 20.097 0.746837 20.0976C0.779314 20.4581 0.768278 20.5704 0.808258 20.8431ZM16.526 0.704911C16.3378 0.67518 16.0131 0.714955 16.0171 0.780344C16.1998 0.778447 16.3801 0.779653 16.5608 0.783586C16.5226 0.770076 16.5582 0.709855 16.526 0.704911ZM26.5135 2.8208C26.3972 2.73006 26.0854 2.5845 26.1894 2.70381C26.2082 2.72434 26.5261 2.85447 26.3021 2.84666C26.5924 3.00584 26.5796 2.87248 26.5135 2.8208ZM2.96726 9.45323C3.02583 9.34663 3.0855 9.2407 3.14626 9.13546C3.1383 9.09771 3.13046 9.0599 3.12274 9.02202C3.06892 9.16529 3.01709 9.30905 2.96726 9.45323ZM18.0929 0.598451C18.2544 0.727405 18.5345 0.606937 18.8322 0.72679C18.9434 0.732875 19.0564 0.740137 19.1681 0.748415C19.1684 0.748433 19.1686 0.748452 19.1689 0.74847C19.1743 0.713758 19.1797 0.679049 19.1851 0.644341C18.8189 0.617614 18.4595 0.602543 18.0929 0.598451ZM0.699691 16.639C0.721732 16.5654 0.744233 16.4921 0.767186 16.4192C0.760284 16.2853 0.755018 16.1502 0.751385 16.0146C0.729668 16.0852 0.708366 16.1561 0.687509 16.2272C0.689972 16.3644 0.694031 16.5016 0.699691 16.639ZM20.0706 0.709184C19.6784 0.648784 19.5212 0.745515 20.0213 0.799756C20.2312 0.824574 20.4789 0.777211 20.0706 0.709184ZM8.87958 32.7575C8.76998 32.6784 8.66145 32.5982 8.55403 32.5168C8.50288 32.5114 8.45167 32.5058 8.40043 32.4999C8.55887 32.5883 8.71861 32.6742 8.87958 32.7575ZM28.0842 3.83316C28.0577 3.84305 28.0312 3.85299 28.0048 3.86299C27.9097 3.78977 27.8137 3.71748 27.7169 3.64614C27.755 3.64383 27.7931 3.64166 27.8313 3.63962C27.9163 3.7034 28.0006 3.76792 28.0842 3.83316ZM8.12999 32.2486C8.04412 32.1835 7.95892 32.1177 7.8744 32.0512C7.80918 32.0182 7.74413 31.9847 7.67925 31.9508C7.75344 32.0199 7.82832 32.0884 7.9039 32.1563C7.97914 32.1876 8.05451 32.2184 8.12999 32.2486ZM23.7074 1.55592C23.5732 1.47741 22.9693 1.37565 23.4808 1.56546C23.8043 1.68994 23.7275 1.56791 23.7074 1.55592ZM24.4845 1.81641C23.9642 1.55823 24.2726 1.9557 24.9713 2.06638C24.3237 1.81569 24.5141 1.83406 24.4845 1.81641ZM28.955 4.26171C28.9663 4.27102 28.9515 4.30894 29.0414 4.38363C29.3663 4.65163 29.7712 5.0321 29.9876 5.24086C30.5384 5.7097 32.0301 7.36122 32.0665 7.65706C32.0791 7.71435 31.9486 7.65729 31.9587 7.67708C31.9892 7.73361 32.2313 8.01211 32.1488 7.98733C31.9411 7.69363 31.7241 7.40616 31.4986 7.12589C31.5828 7.17143 31.6668 7.21784 31.7507 7.26513C31.1718 6.57352 31.3553 6.8085 31.1285 6.66251C31.0528 6.52724 30.9751 6.39269 30.8954 6.25887C30.6484 6.03427 30.3957 5.81741 30.1376 5.60849C30.2075 5.64425 30.2773 5.68057 30.3469 5.71744C30.0223 5.33455 30.0995 5.45284 29.8627 5.30621C29.8783 5.28877 29.8938 5.27133 29.9094 5.25389C29.5165 4.96731 29.4893 4.85749 29.4103 4.78659C29.2424 4.64381 28.8726 4.67441 28.3795 3.96144C28.0213 3.86252 28.1828 3.6495 27.9358 3.64345C27.5304 3.18589 28.4364 3.86268 28.8469 4.20501C28.8471 4.20518 28.8473 4.20535 28.8476 4.20553C28.8789 4.23087 28.8444 4.17126 28.955 4.26171ZM26.3504 2.6927C26.7272 2.75207 25.4737 2.08586 25.8118 2.45802C25.8713 2.49431 25.9304 2.53094 25.9893 2.56789C26.1102 2.60825 26.2306 2.64988 26.3511 2.6931C26.3508 2.69297 26.3506 2.69284 26.3504 2.6927ZM13.4825 1.0742C12.2352 1.48413 12.971 1.34097 13.3783 1.1557C13.4601 1.11929 13.5025 1.08902 13.4825 1.0742ZM0.905983 21.8376C0.92439 21.8532 0.942815 21.8687 0.96126 21.8842C0.84387 21.4572 0.761584 20.6124 0.669282 20.6372C0.734446 21.0417 0.812735 21.4387 0.905983 21.8376ZM0.423966 18.3887C0.418869 18.4838 0.420261 18.8704 0.455518 18.822C0.473838 18.6541 0.494521 18.4863 0.517566 18.3188C0.4999 18.2412 0.482739 18.1634 0.46609 18.0852C0.46085 18.1944 0.424819 18.3629 0.423966 18.3887Z" fill="#7158EA"/>
</svg>
